<?xml version="1.0" encoding="UTF-8" standalone="no"?>
<!DOCTYPE svg PUBLIC "-//W3C//DTD SVG 1.1//EN"
 "http://www.w3.org/Graphics/SVG/1.1/DTD/svg11.dtd">
<!-- Generated by graphviz version 2.47.0 (20210316.0004)
 -->
<!-- Title: dbml Pages: 1 -->
<svg width="2040pt" height="2861pt"
 viewBox="0.00 0.00 2040.10 2860.77" xmlns="http://www.w3.org/2000/svg" xmlns:xlink="http://www.w3.org/1999/xlink">
<g id="graph0" class="graph" transform="scale(1 1) rotate(0) translate(4 2856.77)">
<title>dbml</title>
<!-- price_type -->
<g id="price_type" class="node">
<title>price_type</title>
<ellipse fill="none" stroke="black" stroke-width="0" cx="1759.86" cy="-1328.39" rx="210.94" ry="257.27"/>
<polygon fill="#29235c" stroke="transparent" points="1612.86,-1448.39 1612.86,-1508.39 1906.86,-1508.39 1906.86,-1448.39 1612.86,-1448.39"/>
<polygon fill="none" stroke="#29235c" points="1612.86,-1448.39 1612.86,-1508.39 1906.86,-1508.39 1906.86,-1448.39 1612.86,-1448.39"/>
<text text-anchor="start" x="1623.82" y="-1469.59" font-family="Helvetica,sans-Serif" font-weight="bold" font-size="32.00" fill="#ffffff"> &#160;&#160;&#160;&#160;&#160;&#160;price_type &#160;&#160;&#160;&#160;&#160;&#160;</text>
<polygon fill="#e7e2dd" stroke="transparent" points="1612.86,-1388.39 1612.86,-1448.39 1906.86,-1448.39 1906.86,-1388.39 1612.86,-1388.39"/>
<polygon fill="none" stroke="#29235c" points="1612.86,-1388.39 1612.86,-1448.39 1906.86,-1448.39 1906.86,-1388.39 1612.86,-1388.39"/>
<text text-anchor="start" x="1715.4" y="-1409.59" font-family="Helvetica,sans-Serif" font-style="italic" font-size="32.00" fill="#1d71b8"> &#160;&#160;&#160;$ &#160;&#160;&#160;</text>
<polygon fill="#e7e2dd" stroke="transparent" points="1612.86,-1328.39 1612.86,-1388.39 1906.86,-1388.39 1906.86,-1328.39 1612.86,-1328.39"/>
<polygon fill="none" stroke="#29235c" points="1612.86,-1328.39 1612.86,-1388.39 1906.86,-1388.39 1906.86,-1328.39 1612.86,-1328.39"/>
<text text-anchor="start" x="1706.5" y="-1349.59" font-family="Helvetica,sans-Serif" font-style="italic" font-size="32.00" fill="#1d71b8"> &#160;&#160;&#160;$$ &#160;&#160;&#160;</text>
<polygon fill="#e7e2dd" stroke="transparent" points="1612.86,-1268.39 1612.86,-1328.39 1906.86,-1328.39 1906.86,-1268.39 1612.86,-1268.39"/>
<polygon fill="none" stroke="#29235c" points="1612.86,-1268.39 1612.86,-1328.39 1906.86,-1328.39 1906.86,-1268.39 1612.86,-1268.39"/>
<text text-anchor="start" x="1697.61" y="-1289.59" font-family="Helvetica,sans-Serif" font-style="italic" font-size="32.00" fill="#1d71b8"> &#160;&#160;&#160;$$$ &#160;&#160;&#160;</text>
<polygon fill="#e7e2dd" stroke="transparent" points="1612.86,-1208.39 1612.86,-1268.39 1906.86,-1268.39 1906.86,-1208.39 1612.86,-1208.39"/>
<polygon fill="none" stroke="#29235c" points="1612.86,-1208.39 1612.86,-1268.39 1906.86,-1268.39 1906.86,-1208.39 1612.86,-1208.39"/>
<text text-anchor="start" x="1688.72" y="-1229.59" font-family="Helvetica,sans-Serif" font-style="italic" font-size="32.00" fill="#1d71b8"> &#160;&#160;&#160;$$$$ &#160;&#160;&#160;</text>
<polygon fill="#e7e2dd" stroke="transparent" points="1612.86,-1148.39 1612.86,-1208.39 1906.86,-1208.39 1906.86,-1148.39 1612.86,-1148.39"/>
<polygon fill="none" stroke="#29235c" points="1612.86,-1148.39 1612.86,-1208.39 1906.86,-1208.39 1906.86,-1148.39 1612.86,-1148.39"/>
<text text-anchor="start" x="1679.82" y="-1169.59" font-family="Helvetica,sans-Serif" font-style="italic" font-size="32.00" fill="#1d71b8"> &#160;&#160;&#160;$$$$$ &#160;&#160;&#160;</text>
<polygon fill="none" stroke="#29235c" stroke-width="2" points="1611.86,-1147.39 1611.86,-1509.39 1907.86,-1509.39 1907.86,-1147.39 1611.86,-1147.39"/>
</g>
<!-- transaction_type -->
<g id="transaction_type" class="node">
<title>transaction_type</title>
<ellipse fill="none" stroke="black" stroke-width="0" cx="1759.86" cy="-1733.39" rx="272.47" ry="130.22"/>
<polygon fill="#29235c" stroke="transparent" points="1569.86,-1763.39 1569.86,-1823.39 1950.86,-1823.39 1950.86,-1763.39 1569.86,-1763.39"/>
<polygon fill="none" stroke="#29235c" points="1569.86,-1763.39 1569.86,-1823.39 1950.86,-1823.39 1950.86,-1763.39 1569.86,-1763.39"/>
<text text-anchor="start" x="1580.74" y="-1784.59" font-family="Helvetica,sans-Serif" font-weight="bold" font-size="32.00" fill="#ffffff"> &#160;&#160;&#160;&#160;&#160;&#160;transaction_type &#160;&#160;&#160;&#160;&#160;&#160;</text>
<polygon fill="#e7e2dd" stroke="transparent" points="1569.86,-1703.39 1569.86,-1763.39 1950.86,-1763.39 1950.86,-1703.39 1569.86,-1703.39"/>
<polygon fill="none" stroke="#29235c" points="1569.86,-1703.39 1569.86,-1763.39 1950.86,-1763.39 1950.86,-1703.39 1569.86,-1703.39"/>
<text text-anchor="start" x="1678.56" y="-1724.59" font-family="Helvetica,sans-Serif" font-style="italic" font-size="32.00" fill="#1d71b8"> &#160;&#160;&#160;pickup &#160;&#160;&#160;</text>
<polygon fill="#e7e2dd" stroke="transparent" points="1569.86,-1643.39 1569.86,-1703.39 1950.86,-1703.39 1950.86,-1643.39 1569.86,-1643.39"/>
<polygon fill="none" stroke="#29235c" points="1569.86,-1643.39 1569.86,-1703.39 1950.86,-1703.39 1950.86,-1643.39 1569.86,-1643.39"/>
<text text-anchor="start" x="1669.68" y="-1664.59" font-family="Helvetica,sans-Serif" font-style="italic" font-size="32.00" fill="#1d71b8"> &#160;&#160;&#160;delivery &#160;&#160;&#160;</text>
<polygon fill="none" stroke="#29235c" stroke-width="2" points="1568.36,-1642.39 1568.36,-1824.39 1951.36,-1824.39 1951.36,-1642.39 1568.36,-1642.39"/>
</g>
<!-- users -->
<g id="users" class="node">
<title>users</title>
<ellipse fill="none" stroke="black" stroke-width="0" cx="1057.06" cy="-257.39" rx="313.5" ry="257.27"/>
<polygon fill="#1d71b8" stroke="transparent" points="838.06,-377.39 838.06,-437.39 1277.06,-437.39 1277.06,-377.39 838.06,-377.39"/>
<polygon fill="none" stroke="#29235c" points="838.06,-377.39 838.06,-437.39 1277.06,-437.39 1277.06,-377.39 838.06,-377.39"/>
<text text-anchor="start" x="956.2" y="-398.59" font-family="Helvetica,sans-Serif" font-weight="bold" font-size="32.00" fill="#ffffff"> &#160;&#160;&#160;&#160;&#160;&#160;users &#160;&#160;&#160;&#160;&#160;&#160;</text>
<polygon fill="#e7e2dd" stroke="transparent" points="838.06,-317.39 838.06,-377.39 1277.06,-377.39 1277.06,-317.39 838.06,-317.39"/>
<polygon fill="none" stroke="#29235c" points="838.06,-317.39 838.06,-377.39 1277.06,-377.39 1277.06,-317.39 838.06,-317.39"/>
<text text-anchor="start" x="849.06" y="-338.59" font-family="Helvetica,sans-Serif" font-weight="bold" font-size="32.00" fill="#29235c">id</text>
<text text-anchor="start" x="873.95" y="-338.59" font-family="Helvetica,sans-Serif" font-size="32.00" fill="#29235c"> &#160;&#160;&#160;</text>
<text text-anchor="start" x="1189.6" y="-338.59" font-family="Helvetica,sans-Serif" font-style="italic" font-size="32.00" fill="#29235c">bigint</text>
<polygon fill="#e7e2dd" stroke="transparent" points="838.06,-257.39 838.06,-317.39 1277.06,-317.39 1277.06,-257.39 838.06,-257.39"/>
<polygon fill="none" stroke="#29235c" points="838.06,-257.39 838.06,-317.39 1277.06,-317.39 1277.06,-257.39 838.06,-257.39"/>
<text text-anchor="start" x="849.06" y="-277.59" font-family="Helvetica,sans-Serif" font-size="32.00" fill="#29235c">name &#160;&#160;&#160;</text>
<text text-anchor="start" x="1045.63" y="-278.59" font-family="Helvetica,sans-Serif" font-style="italic" font-size="32.00" fill="#29235c">varchar(127)</text>
<text text-anchor="start" x="1226.97" y="-278.59" font-family="Helvetica,sans-Serif" font-size="32.00" fill="#29235c"> </text>
<text text-anchor="start" x="1235.86" y="-278.59" font-family="Helvetica,sans-Serif" font-weight="bold" font-size="32.00" fill="#29235c">(!)</text>
<polygon fill="#e7e2dd" stroke="transparent" points="838.06,-197.39 838.06,-257.39 1277.06,-257.39 1277.06,-197.39 838.06,-197.39"/>
<polygon fill="none" stroke="#29235c" points="838.06,-197.39 838.06,-257.39 1277.06,-257.39 1277.06,-197.39 838.06,-197.39"/>
<text text-anchor="start" x="849.06" y="-217.59" font-family="Helvetica,sans-Serif" font-size="32.00" fill="#29235c">image_url &#160;&#160;&#160;</text>
<text text-anchor="start" x="1045.63" y="-218.59" font-family="Helvetica,sans-Serif" font-style="italic" font-size="32.00" fill="#29235c">varchar(255)</text>
<text text-anchor="start" x="1226.97" y="-218.59" font-family="Helvetica,sans-Serif" font-size="32.00" fill="#29235c"> </text>
<text text-anchor="start" x="1235.86" y="-218.59" font-family="Helvetica,sans-Serif" font-weight="bold" font-size="32.00" fill="#29235c">(!)</text>
<polygon fill="#e7e2dd" stroke="transparent" points="838.06,-137.39 838.06,-197.39 1277.06,-197.39 1277.06,-137.39 838.06,-137.39"/>
<polygon fill="none" stroke="#29235c" points="838.06,-137.39 838.06,-197.39 1277.06,-197.39 1277.06,-137.39 838.06,-137.39"/>
<text text-anchor="start" x="849.06" y="-157.59" font-family="Helvetica,sans-Serif" font-size="32.00" fill="#29235c">created_date &#160;&#160;&#160;</text>
<text text-anchor="start" x="1079.41" y="-158.59" font-family="Helvetica,sans-Serif" font-style="italic" font-size="32.00" fill="#29235c">timestamp</text>
<text text-anchor="start" x="1226.97" y="-158.59" font-family="Helvetica,sans-Serif" font-size="32.00" fill="#29235c"> </text>
<text text-anchor="start" x="1235.86" y="-158.59" font-family="Helvetica,sans-Serif" font-weight="bold" font-size="32.00" fill="#29235c">(!)</text>
<polygon fill="#e7e2dd" stroke="transparent" points="838.06,-77.39 838.06,-137.39 1277.06,-137.39 1277.06,-77.39 838.06,-77.39"/>
<polygon fill="none" stroke="#29235c" points="838.06,-77.39 838.06,-137.39 1277.06,-137.39 1277.06,-77.39 838.06,-77.39"/>
<text text-anchor="start" x="848.94" y="-97.59" font-family="Helvetica,sans-Serif" font-size="32.00" fill="#29235c">updated_date &#160;&#160;&#160;</text>
<text text-anchor="start" x="1079.74" y="-98.59" font-family="Helvetica,sans-Serif" font-style="italic" font-size="32.00" fill="#29235c">timestamp</text>
<text text-anchor="start" x="1227.3" y="-98.59" font-family="Helvetica,sans-Serif" font-size="32.00" fill="#29235c"> </text>
<text text-anchor="start" x="1236.19" y="-98.59" font-family="Helvetica,sans-Serif" font-weight="bold" font-size="32.00" fill="#29235c">(!)</text>
<polygon fill="none" stroke="#29235c" stroke-width="2" points="836.56,-76.39 836.56,-438.39 1277.56,-438.39 1277.56,-76.39 836.56,-76.39"/>
</g>
<!-- businesses -->
<g id="businesses" class="node">
<title>businesses</title>
<ellipse fill="none" stroke="black" stroke-width="0" cx="1057.06" cy="-1426.39" rx="394.63" ry="893.57"/>
<polygon fill="#1d71b8" stroke="transparent" points="780.06,-1996.39 780.06,-2056.39 1334.06,-2056.39 1334.06,-1996.39 780.06,-1996.39"/>
<polygon fill="none" stroke="#29235c" points="780.06,-1996.39 780.06,-2056.39 1334.06,-2056.39 1334.06,-1996.39 780.06,-1996.39"/>
<text text-anchor="start" x="914.79" y="-2017.59" font-family="Helvetica,sans-Serif" font-weight="bold" font-size="32.00" fill="#ffffff"> &#160;&#160;&#160;&#160;&#160;&#160;businesses &#160;&#160;&#160;&#160;&#160;&#160;</text>
<polygon fill="#e7e2dd" stroke="transparent" points="780.06,-1936.39 780.06,-1996.39 1334.06,-1996.39 1334.06,-1936.39 780.06,-1936.39"/>
<polygon fill="none" stroke="#29235c" points="780.06,-1936.39 780.06,-1996.39 1334.06,-1996.39 1334.06,-1936.39 780.06,-1936.39"/>
<text text-anchor="start" x="791.06" y="-1957.59" font-family="Helvetica,sans-Serif" font-weight="bold" font-size="32.00" fill="#29235c">id</text>
<text text-anchor="start" x="815.95" y="-1957.59" font-family="Helvetica,sans-Serif" font-size="32.00" fill="#29235c"> &#160;&#160;&#160;</text>
<text text-anchor="start" x="1246.6" y="-1957.59" font-family="Helvetica,sans-Serif" font-style="italic" font-size="32.00" fill="#29235c">bigint</text>
<polygon fill="#e7e2dd" stroke="transparent" points="780.06,-1876.39 780.06,-1936.39 1334.06,-1936.39 1334.06,-1876.39 780.06,-1876.39"/>
<polygon fill="none" stroke="#29235c" points="780.06,-1876.39 780.06,-1936.39 1334.06,-1936.39 1334.06,-1876.39 780.06,-1876.39"/>
<text text-anchor="start" x="791.06" y="-1896.59" font-family="Helvetica,sans-Serif" font-size="32.00" fill="#29235c">alias &#160;&#160;&#160;</text>
<text text-anchor="start" x="1102.63" y="-1897.59" font-family="Helvetica,sans-Serif" font-style="italic" font-size="32.00" fill="#29235c">varchar(127)</text>
<text text-anchor="start" x="1283.97" y="-1897.59" font-family="Helvetica,sans-Serif" font-size="32.00" fill="#29235c"> </text>
<text text-anchor="start" x="1292.86" y="-1897.59" font-family="Helvetica,sans-Serif" font-weight="bold" font-size="32.00" fill="#29235c">(!)</text>
<polygon fill="#e7e2dd" stroke="transparent" points="780.06,-1816.39 780.06,-1876.39 1334.06,-1876.39 1334.06,-1816.39 780.06,-1816.39"/>
<polygon fill="none" stroke="#29235c" points="780.06,-1816.39 780.06,-1876.39 1334.06,-1876.39 1334.06,-1816.39 780.06,-1816.39"/>
<text text-anchor="start" x="791.06" y="-1836.59" font-family="Helvetica,sans-Serif" font-size="32.00" fill="#29235c">name &#160;&#160;&#160;</text>
<text text-anchor="start" x="1102.63" y="-1837.59" font-family="Helvetica,sans-Serif" font-style="italic" font-size="32.00" fill="#29235c">varchar(255)</text>
<text text-anchor="start" x="1283.97" y="-1837.59" font-family="Helvetica,sans-Serif" font-size="32.00" fill="#29235c"> </text>
<text text-anchor="start" x="1292.86" y="-1837.59" font-family="Helvetica,sans-Serif" font-weight="bold" font-size="32.00" fill="#29235c">(!)</text>
<polygon fill="#e7e2dd" stroke="transparent" points="780.06,-1756.39 780.06,-1816.39 1334.06,-1816.39 1334.06,-1756.39 780.06,-1756.39"/>
<polygon fill="none" stroke="#29235c" points="780.06,-1756.39 780.06,-1816.39 1334.06,-1816.39 1334.06,-1756.39 780.06,-1756.39"/>
<text text-anchor="start" x="791.06" y="-1776.59" font-family="Helvetica,sans-Serif" font-size="32.00" fill="#29235c">image_url &#160;&#160;&#160;</text>
<text text-anchor="start" x="1102.63" y="-1777.59" font-family="Helvetica,sans-Serif" font-style="italic" font-size="32.00" fill="#29235c">varchar(255)</text>
<text text-anchor="start" x="1283.97" y="-1777.59" font-family="Helvetica,sans-Serif" font-size="32.00" fill="#29235c"> </text>
<text text-anchor="start" x="1292.86" y="-1777.59" font-family="Helvetica,sans-Serif" font-weight="bold" font-size="32.00" fill="#29235c">(!)</text>
<polygon fill="#e7e2dd" stroke="transparent" points="780.06,-1696.39 780.06,-1756.39 1334.06,-1756.39 1334.06,-1696.39 780.06,-1696.39"/>
<polygon fill="none" stroke="#29235c" points="780.06,-1696.39 780.06,-1756.39 1334.06,-1756.39 1334.06,-1696.39 780.06,-1696.39"/>
<text text-anchor="start" x="791.06" y="-1716.59" font-family="Helvetica,sans-Serif" font-size="32.00" fill="#29235c">transactions &#160;&#160;&#160;</text>
<text text-anchor="start" x="1049.23" y="-1717.59" font-family="Helvetica,sans-Serif" font-style="italic" font-size="32.00" fill="#29235c">transaction_type</text>
<text text-anchor="start" x="1283.97" y="-1717.59" font-family="Helvetica,sans-Serif" font-size="32.00" fill="#29235c"> </text>
<text text-anchor="start" x="1292.86" y="-1717.59" font-family="Helvetica,sans-Serif" font-weight="bold" font-size="32.00" fill="#29235c">(!)</text>
<polygon fill="#e7e2dd" stroke="transparent" points="780.06,-1636.39 780.06,-1696.39 1334.06,-1696.39 1334.06,-1636.39 780.06,-1636.39"/>
<polygon fill="none" stroke="#29235c" points="780.06,-1636.39 780.06,-1696.39 1334.06,-1696.39 1334.06,-1636.39 780.06,-1636.39"/>
<text text-anchor="start" x="791.06" y="-1656.59" font-family="Helvetica,sans-Serif" font-size="32.00" fill="#29235c">latitude &#160;&#160;&#160;</text>
<text text-anchor="start" x="1223.51" y="-1657.59" font-family="Helvetica,sans-Serif" font-style="italic" font-size="32.00" fill="#29235c">float</text>
<text text-anchor="start" x="1283.97" y="-1657.59" font-family="Helvetica,sans-Serif" font-size="32.00" fill="#29235c"> </text>
<text text-anchor="start" x="1292.86" y="-1657.59" font-family="Helvetica,sans-Serif" font-weight="bold" font-size="32.00" fill="#29235c">(!)</text>
<polygon fill="#e7e2dd" stroke="transparent" points="780.06,-1576.39 780.06,-1636.39 1334.06,-1636.39 1334.06,-1576.39 780.06,-1576.39"/>
<polygon fill="none" stroke="#29235c" points="780.06,-1576.39 780.06,-1636.39 1334.06,-1636.39 1334.06,-1576.39 780.06,-1576.39"/>
<text text-anchor="start" x="791.06" y="-1596.59" font-family="Helvetica,sans-Serif" font-size="32.00" fill="#29235c">longitude &#160;&#160;&#160;</text>
<text text-anchor="start" x="1223.51" y="-1597.59" font-family="Helvetica,sans-Serif" font-style="italic" font-size="32.00" fill="#29235c">float</text>
<text text-anchor="start" x="1283.97" y="-1597.59" font-family="Helvetica,sans-Serif" font-size="32.00" fill="#29235c"> </text>
<text text-anchor="start" x="1292.86" y="-1597.59" font-family="Helvetica,sans-Serif" font-weight="bold" font-size="32.00" fill="#29235c">(!)</text>
<polygon fill="#e7e2dd" stroke="transparent" points="780.06,-1516.39 780.06,-1576.39 1334.06,-1576.39 1334.06,-1516.39 780.06,-1516.39"/>
<polygon fill="none" stroke="#29235c" points="780.06,-1516.39 780.06,-1576.39 1334.06,-1576.39 1334.06,-1516.39 780.06,-1516.39"/>
<text text-anchor="start" x="791.06" y="-1536.59" font-family="Helvetica,sans-Serif" font-size="32.00" fill="#29235c">price &#160;&#160;&#160;</text>
<text text-anchor="start" x="1136.38" y="-1537.59" font-family="Helvetica,sans-Serif" font-style="italic" font-size="32.00" fill="#29235c">price_type</text>
<text text-anchor="start" x="1283.97" y="-1537.59" font-family="Helvetica,sans-Serif" font-size="32.00" fill="#29235c"> </text>
<text text-anchor="start" x="1292.86" y="-1537.59" font-family="Helvetica,sans-Serif" font-weight="bold" font-size="32.00" fill="#29235c">(!)</text>
<polygon fill="#e7e2dd" stroke="transparent" points="780.06,-1456.39 780.06,-1516.39 1334.06,-1516.39 1334.06,-1456.39 780.06,-1456.39"/>
<polygon fill="none" stroke="#29235c" points="780.06,-1456.39 780.06,-1516.39 1334.06,-1516.39 1334.06,-1456.39 780.06,-1456.39"/>
<text text-anchor="start" x="790.56" y="-1476.59" font-family="Helvetica,sans-Serif" font-size="32.00" fill="#29235c">location_address_1 &#160;&#160;&#160;</text>
<text text-anchor="start" x="1102.84" y="-1477.59" font-family="Helvetica,sans-Serif" font-style="italic" font-size="32.00" fill="#29235c">varchar(255)</text>
<text text-anchor="start" x="1284.19" y="-1477.59" font-family="Helvetica,sans-Serif" font-size="32.00" fill="#29235c"> </text>
<text text-anchor="start" x="1293.08" y="-1477.59" font-family="Helvetica,sans-Serif" font-weight="bold" font-size="32.00" fill="#29235c">(!)</text>
<polygon fill="#e7e2dd" stroke="transparent" points="780.06,-1396.39 780.06,-1456.39 1334.06,-1456.39 1334.06,-1396.39 780.06,-1396.39"/>
<polygon fill="none" stroke="#29235c" points="780.06,-1396.39 780.06,-1456.39 1334.06,-1456.39 1334.06,-1396.39 780.06,-1396.39"/>
<text text-anchor="start" x="791.06" y="-1416.59" font-family="Helvetica,sans-Serif" font-size="32.00" fill="#29235c">location_address_2 &#160;&#160;&#160;</text>
<text text-anchor="start" x="1141.72" y="-1417.59" font-family="Helvetica,sans-Serif" font-style="italic" font-size="32.00" fill="#29235c">varchar(255)</text>
<polygon fill="#e7e2dd" stroke="transparent" points="780.06,-1336.39 780.06,-1396.39 1334.06,-1396.39 1334.06,-1336.39 780.06,-1336.39"/>
<polygon fill="none" stroke="#29235c" points="780.06,-1336.39 780.06,-1396.39 1334.06,-1396.39 1334.06,-1336.39 780.06,-1336.39"/>
<text text-anchor="start" x="791.06" y="-1356.59" font-family="Helvetica,sans-Serif" font-size="32.00" fill="#29235c">location_address_3 &#160;&#160;&#160;</text>
<text text-anchor="start" x="1141.72" y="-1357.59" font-family="Helvetica,sans-Serif" font-style="italic" font-size="32.00" fill="#29235c">varchar(255)</text>
<polygon fill="#e7e2dd" stroke="transparent" points="780.06,-1276.39 780.06,-1336.39 1334.06,-1336.39 1334.06,-1276.39 780.06,-1276.39"/>
<polygon fill="none" stroke="#29235c" points="780.06,-1276.39 780.06,-1336.39 1334.06,-1336.39 1334.06,-1276.39 780.06,-1276.39"/>
<text text-anchor="start" x="791.06" y="-1296.59" font-family="Helvetica,sans-Serif" font-size="32.00" fill="#29235c">city &#160;&#160;&#160;</text>
<text text-anchor="start" x="1102.63" y="-1297.59" font-family="Helvetica,sans-Serif" font-style="italic" font-size="32.00" fill="#29235c">varchar(255)</text>
<text text-anchor="start" x="1283.97" y="-1297.59" font-family="Helvetica,sans-Serif" font-size="32.00" fill="#29235c"> </text>
<text text-anchor="start" x="1292.86" y="-1297.59" font-family="Helvetica,sans-Serif" font-weight="bold" font-size="32.00" fill="#29235c">(!)</text>
<polygon fill="#e7e2dd" stroke="transparent" points="780.06,-1216.39 780.06,-1276.39 1334.06,-1276.39 1334.06,-1216.39 780.06,-1216.39"/>
<polygon fill="none" stroke="#29235c" points="780.06,-1216.39 780.06,-1276.39 1334.06,-1276.39 1334.06,-1216.39 780.06,-1216.39"/>
<text text-anchor="start" x="791.06" y="-1236.59" font-family="Helvetica,sans-Serif" font-size="32.00" fill="#29235c">zip_code &#160;&#160;&#160;</text>
<text text-anchor="start" x="1138.2" y="-1237.59" font-family="Helvetica,sans-Serif" font-style="italic" font-size="32.00" fill="#29235c">varchar(7)</text>
<text text-anchor="start" x="1283.97" y="-1237.59" font-family="Helvetica,sans-Serif" font-size="32.00" fill="#29235c"> </text>
<text text-anchor="start" x="1292.86" y="-1237.59" font-family="Helvetica,sans-Serif" font-weight="bold" font-size="32.00" fill="#29235c">(!)</text>
<polygon fill="#e7e2dd" stroke="transparent" points="780.06,-1156.39 780.06,-1216.39 1334.06,-1216.39 1334.06,-1156.39 780.06,-1156.39"/>
<polygon fill="none" stroke="#29235c" points="780.06,-1156.39 780.06,-1216.39 1334.06,-1216.39 1334.06,-1156.39 780.06,-1156.39"/>
<text text-anchor="start" x="791.06" y="-1176.59" font-family="Helvetica,sans-Serif" font-size="32.00" fill="#29235c">country &#160;&#160;&#160;</text>
<text text-anchor="start" x="1138.2" y="-1177.59" font-family="Helvetica,sans-Serif" font-style="italic" font-size="32.00" fill="#29235c">varchar(3)</text>
<text text-anchor="start" x="1283.97" y="-1177.59" font-family="Helvetica,sans-Serif" font-size="32.00" fill="#29235c"> </text>
<text text-anchor="start" x="1292.86" y="-1177.59" font-family="Helvetica,sans-Serif" font-weight="bold" font-size="32.00" fill="#29235c">(!)</text>
<polygon fill="#e7e2dd" stroke="transparent" points="780.06,-1096.39 780.06,-1156.39 1334.06,-1156.39 1334.06,-1096.39 780.06,-1096.39"/>
<polygon fill="none" stroke="#29235c" points="780.06,-1096.39 780.06,-1156.39 1334.06,-1156.39 1334.06,-1096.39 780.06,-1096.39"/>
<text text-anchor="start" x="791.06" y="-1116.59" font-family="Helvetica,sans-Serif" font-size="32.00" fill="#29235c">state &#160;&#160;&#160;</text>
<text text-anchor="start" x="1138.2" y="-1117.59" font-family="Helvetica,sans-Serif" font-style="italic" font-size="32.00" fill="#29235c">varchar(3)</text>
<text text-anchor="start" x="1283.97" y="-1117.59" font-family="Helvetica,sans-Serif" font-size="32.00" fill="#29235c"> </text>
<text text-anchor="start" x="1292.86" y="-1117.59" font-family="Helvetica,sans-Serif" font-weight="bold" font-size="32.00" fill="#29235c">(!)</text>
<polygon fill="#e7e2dd" stroke="transparent" points="780.06,-1036.39 780.06,-1096.39 1334.06,-1096.39 1334.06,-1036.39 780.06,-1036.39"/>
<polygon fill="none" stroke="#29235c" points="780.06,-1036.39 780.06,-1096.39 1334.06,-1096.39 1334.06,-1036.39 780.06,-1036.39"/>
<text text-anchor="start" x="791.06" y="-1056.59" font-family="Helvetica,sans-Serif" font-size="32.00" fill="#29235c">display_address &#160;&#160;&#160;</text>
<text text-anchor="start" x="1102.63" y="-1057.59" font-family="Helvetica,sans-Serif" font-style="italic" font-size="32.00" fill="#29235c">varchar(255)</text>
<text text-anchor="start" x="1283.97" y="-1057.59" font-family="Helvetica,sans-Serif" font-size="32.00" fill="#29235c"> </text>
<text text-anchor="start" x="1292.86" y="-1057.59" font-family="Helvetica,sans-Serif" font-weight="bold" font-size="32.00" fill="#29235c">(!)</text>
<polygon fill="#e7e2dd" stroke="transparent" points="780.06,-976.39 780.06,-1036.39 1334.06,-1036.39 1334.06,-976.39 780.06,-976.39"/>
<polygon fill="none" stroke="#29235c" points="780.06,-976.39 780.06,-1036.39 1334.06,-1036.39 1334.06,-976.39 780.06,-976.39"/>
<text text-anchor="start" x="791.06" y="-996.59" font-family="Helvetica,sans-Serif" font-size="32.00" fill="#29235c">phone &#160;&#160;&#160;</text>
<text text-anchor="start" x="1120.42" y="-997.59" font-family="Helvetica,sans-Serif" font-style="italic" font-size="32.00" fill="#29235c">varchar(31)</text>
<text text-anchor="start" x="1283.97" y="-997.59" font-family="Helvetica,sans-Serif" font-size="32.00" fill="#29235c"> </text>
<text text-anchor="start" x="1292.86" y="-997.59" font-family="Helvetica,sans-Serif" font-weight="bold" font-size="32.00" fill="#29235c">(!)</text>
<polygon fill="#e7e2dd" stroke="transparent" points="780.06,-916.39 780.06,-976.39 1334.06,-976.39 1334.06,-916.39 780.06,-916.39"/>
<polygon fill="none" stroke="#29235c" points="780.06,-916.39 780.06,-976.39 1334.06,-976.39 1334.06,-916.39 780.06,-916.39"/>
<text text-anchor="start" x="791.06" y="-936.59" font-family="Helvetica,sans-Serif" font-size="32.00" fill="#29235c">display_phone &#160;&#160;&#160;</text>
<text text-anchor="start" x="1120.42" y="-937.59" font-family="Helvetica,sans-Serif" font-style="italic" font-size="32.00" fill="#29235c">varchar(31)</text>
<text text-anchor="start" x="1283.97" y="-937.59" font-family="Helvetica,sans-Serif" font-size="32.00" fill="#29235c"> </text>
<text text-anchor="start" x="1292.86" y="-937.59" font-family="Helvetica,sans-Serif" font-weight="bold" font-size="32.00" fill="#29235c">(!)</text>
<polygon fill="#e7e2dd" stroke="transparent" points="780.06,-856.39 780.06,-916.39 1334.06,-916.39 1334.06,-856.39 780.06,-856.39"/>
<polygon fill="none" stroke="#29235c" points="780.06,-856.39 780.06,-916.39 1334.06,-916.39 1334.06,-856.39 780.06,-856.39"/>
<text text-anchor="start" x="791.06" y="-876.59" font-family="Helvetica,sans-Serif" font-size="32.00" fill="#29235c">created_date &#160;&#160;&#160;</text>
<text text-anchor="start" x="1136.41" y="-877.59" font-family="Helvetica,sans-Serif" font-style="italic" font-size="32.00" fill="#29235c">timestamp</text>
<text text-anchor="start" x="1283.97" y="-877.59" font-family="Helvetica,sans-Serif" font-size="32.00" fill="#29235c"> </text>
<text text-anchor="start" x="1292.86" y="-877.59" font-family="Helvetica,sans-Serif" font-weight="bold" font-size="32.00" fill="#29235c">(!)</text>
<polygon fill="#e7e2dd" stroke="transparent" points="780.06,-796.39 780.06,-856.39 1334.06,-856.39 1334.06,-796.39 780.06,-796.39"/>
<polygon fill="none" stroke="#29235c" points="780.06,-796.39 780.06,-856.39 1334.06,-856.39 1334.06,-796.39 780.06,-796.39"/>
<text text-anchor="start" x="791.06" y="-816.59" font-family="Helvetica,sans-Serif" font-size="32.00" fill="#29235c">updated_date &#160;&#160;&#160;</text>
<text text-anchor="start" x="1136.41" y="-817.59" font-family="Helvetica,sans-Serif" font-style="italic" font-size="32.00" fill="#29235c">timestamp</text>
<text text-anchor="start" x="1283.97" y="-817.59" font-family="Helvetica,sans-Serif" font-size="32.00" fill="#29235c"> </text>
<text text-anchor="start" x="1292.86" y="-817.59" font-family="Helvetica,sans-Serif" font-weight="bold" font-size="32.00" fill="#29235c">(!)</text>
<polygon fill="none" stroke="#29235c" stroke-width="2" points="779.06,-795.39 779.06,-2057.39 1335.06,-2057.39 1335.06,-795.39 779.06,-795.39"/>
</g>
<!-- businesses&#45;&gt;price_type -->
<g id="edge10" class="edge">
<title>businesses:e&#45;&gt;price_type:w</title>
<path fill="none" stroke="#29235c" stroke-width="3" d="M1335.06,-1546.39C1461.74,-1546.39 1485.18,-1478.39 1611.86,-1478.39"/>
</g>
<!-- businesses&#45;&gt;transaction_type -->
<g id="edge9" class="edge">
<title>businesses:e&#45;&gt;transaction_type:w</title>
<path fill="none" stroke="#29235c" stroke-width="3" d="M1335.06,-1726.39C1443.16,-1726.39 1460.77,-1793.39 1568.86,-1793.39"/>
</g>
<!-- categories -->
<g id="categories" class="node">
<title>categories</title>
<ellipse fill="none" stroke="black" stroke-width="0" cx="1057.06" cy="-2595.39" rx="313.5" ry="257.27"/>
<polygon fill="#1d71b8" stroke="transparent" points="838.06,-2715.39 838.06,-2775.39 1277.06,-2775.39 1277.06,-2715.39 838.06,-2715.39"/>
<polygon fill="none" stroke="#29235c" points="838.06,-2715.39 838.06,-2775.39 1277.06,-2775.39 1277.06,-2715.39 838.06,-2715.39"/>
<text text-anchor="start" x="921.52" y="-2736.59" font-family="Helvetica,sans-Serif" font-weight="bold" font-size="32.00" fill="#ffffff"> &#160;&#160;&#160;&#160;&#160;&#160;categories &#160;&#160;&#160;&#160;&#160;&#160;</text>
<polygon fill="#e7e2dd" stroke="transparent" points="838.06,-2655.39 838.06,-2715.39 1277.06,-2715.39 1277.06,-2655.39 838.06,-2655.39"/>
<polygon fill="none" stroke="#29235c" points="838.06,-2655.39 838.06,-2715.39 1277.06,-2715.39 1277.06,-2655.39 838.06,-2655.39"/>
<text text-anchor="start" x="849.06" y="-2676.59" font-family="Helvetica,sans-Serif" font-weight="bold" font-size="32.00" fill="#29235c">id</text>
<text text-anchor="start" x="873.95" y="-2676.59" font-family="Helvetica,sans-Serif" font-size="32.00" fill="#29235c"> &#160;&#160;&#160;</text>
<text text-anchor="start" x="1189.6" y="-2676.59" font-family="Helvetica,sans-Serif" font-style="italic" font-size="32.00" fill="#29235c">bigint</text>
<polygon fill="#e7e2dd" stroke="transparent" points="838.06,-2595.39 838.06,-2655.39 1277.06,-2655.39 1277.06,-2595.39 838.06,-2595.39"/>
<polygon fill="none" stroke="#29235c" points="838.06,-2595.39 838.06,-2655.39 1277.06,-2655.39 1277.06,-2595.39 838.06,-2595.39"/>
<text text-anchor="start" x="849.06" y="-2615.59" font-family="Helvetica,sans-Serif" font-size="32.00" fill="#29235c">title &#160;&#160;&#160;</text>
<text text-anchor="start" x="1045.63" y="-2616.59" font-family="Helvetica,sans-Serif" font-style="italic" font-size="32.00" fill="#29235c">varchar(127)</text>
<text text-anchor="start" x="1226.97" y="-2616.59" font-family="Helvetica,sans-Serif" font-size="32.00" fill="#29235c"> </text>
<text text-anchor="start" x="1235.86" y="-2616.59" font-family="Helvetica,sans-Serif" font-weight="bold" font-size="32.00" fill="#29235c">(!)</text>
<polygon fill="#e7e2dd" stroke="transparent" points="838.06,-2535.39 838.06,-2595.39 1277.06,-2595.39 1277.06,-2535.39 838.06,-2535.39"/>
<polygon fill="none" stroke="#29235c" points="838.06,-2535.39 838.06,-2595.39 1277.06,-2595.39 1277.06,-2535.39 838.06,-2535.39"/>
<text text-anchor="start" x="849.06" y="-2555.59" font-family="Helvetica,sans-Serif" font-size="32.00" fill="#29235c">alias &#160;&#160;&#160;</text>
<text text-anchor="start" x="1045.63" y="-2556.59" font-family="Helvetica,sans-Serif" font-style="italic" font-size="32.00" fill="#29235c">varchar(127)</text>
<text text-anchor="start" x="1226.97" y="-2556.59" font-family="Helvetica,sans-Serif" font-size="32.00" fill="#29235c"> </text>
<text text-anchor="start" x="1235.86" y="-2556.59" font-family="Helvetica,sans-Serif" font-weight="bold" font-size="32.00" fill="#29235c">(!)</text>
<polygon fill="#e7e2dd" stroke="transparent" points="838.06,-2475.39 838.06,-2535.39 1277.06,-2535.39 1277.06,-2475.39 838.06,-2475.39"/>
<polygon fill="none" stroke="#29235c" points="838.06,-2475.39 838.06,-2535.39 1277.06,-2535.39 1277.06,-2475.39 838.06,-2475.39"/>
<text text-anchor="start" x="849.06" y="-2495.59" font-family="Helvetica,sans-Serif" font-size="32.00" fill="#29235c">created_date &#160;&#160;&#160;</text>
<text text-anchor="start" x="1079.41" y="-2496.59" font-family="Helvetica,sans-Serif" font-style="italic" font-size="32.00" fill="#29235c">timestamp</text>
<text text-anchor="start" x="1226.97" y="-2496.59" font-family="Helvetica,sans-Serif" font-size="32.00" fill="#29235c"> </text>
<text text-anchor="start" x="1235.86" y="-2496.59" font-family="Helvetica,sans-Serif" font-weight="bold" font-size="32.00" fill="#29235c">(!)</text>
<polygon fill="#e7e2dd" stroke="transparent" points="838.06,-2415.39 838.06,-2475.39 1277.06,-2475.39 1277.06,-2415.39 838.06,-2415.39"/>
<polygon fill="none" stroke="#29235c" points="838.06,-2415.39 838.06,-2475.39 1277.06,-2475.39 1277.06,-2415.39 838.06,-2415.39"/>
<text text-anchor="start" x="848.94" y="-2435.59" font-family="Helvetica,sans-Serif" font-size="32.00" fill="#29235c">updated_date &#160;&#160;&#160;</text>
<text text-anchor="start" x="1079.74" y="-2436.59" font-family="Helvetica,sans-Serif" font-style="italic" font-size="32.00" fill="#29235c">timestamp</text>
<text text-anchor="start" x="1227.3" y="-2436.59" font-family="Helvetica,sans-Serif" font-size="32.00" fill="#29235c"> </text>
<text text-anchor="start" x="1236.19" y="-2436.59" font-family="Helvetica,sans-Serif" font-weight="bold" font-size="32.00" fill="#29235c">(!)</text>
<polygon fill="none" stroke="#29235c" stroke-width="2" points="836.56,-2414.39 836.56,-2776.39 1277.56,-2776.39 1277.56,-2414.39 836.56,-2414.39"/>
</g>
<!-- business_categories -->
<g id="business_categories" class="node">
<title>business_categories</title>
<ellipse fill="none" stroke="black" stroke-width="0" cx="313.25" cy="-2265.39" rx="313.5" ry="257.27"/>
<polygon fill="#1d71b8" stroke="transparent" points="94.25,-2385.39 94.25,-2445.39 533.25,-2445.39 533.25,-2385.39 94.25,-2385.39"/>
<polygon fill="none" stroke="#29235c" points="94.25,-2385.39 94.25,-2445.39 533.25,-2445.39 533.25,-2385.39 94.25,-2385.39"/>
<text text-anchor="start" x="105.68" y="-2406.59" font-family="Helvetica,sans-Serif" font-weight="bold" font-size="32.00" fill="#ffffff"> &#160;&#160;&#160;&#160;&#160;&#160;business_categories &#160;&#160;&#160;&#160;&#160;&#160;</text>
<polygon fill="#e7e2dd" stroke="transparent" points="94.25,-2325.39 94.25,-2385.39 533.25,-2385.39 533.25,-2325.39 94.25,-2325.39"/>
<polygon fill="none" stroke="#29235c" points="94.25,-2325.39 94.25,-2385.39 533.25,-2385.39 533.25,-2325.39 94.25,-2325.39"/>
<text text-anchor="start" x="105.25" y="-2346.59" font-family="Helvetica,sans-Serif" font-weight="bold" font-size="32.00" fill="#29235c">id</text>
<text text-anchor="start" x="130.14" y="-2346.59" font-family="Helvetica,sans-Serif" font-size="32.00" fill="#29235c"> &#160;&#160;&#160;</text>
<text text-anchor="start" x="445.79" y="-2346.59" font-family="Helvetica,sans-Serif" font-style="italic" font-size="32.00" fill="#29235c">bigint</text>
<polygon fill="#e7e2dd" stroke="transparent" points="94.25,-2265.39 94.25,-2325.39 533.25,-2325.39 533.25,-2265.39 94.25,-2265.39"/>
<polygon fill="none" stroke="#29235c" points="94.25,-2265.39 94.25,-2325.39 533.25,-2325.39 533.25,-2265.39 94.25,-2265.39"/>
<text text-anchor="start" x="105.25" y="-2285.59" font-family="Helvetica,sans-Serif" font-size="32.00" fill="#29235c">business_id &#160;&#160;&#160;</text>
<text text-anchor="start" x="406.7" y="-2286.59" font-family="Helvetica,sans-Serif" font-style="italic" font-size="32.00" fill="#29235c">bigint</text>
<text text-anchor="start" x="483.16" y="-2286.59" font-family="Helvetica,sans-Serif" font-size="32.00" fill="#29235c"> </text>
<text text-anchor="start" x="492.05" y="-2286.59" font-family="Helvetica,sans-Serif" font-weight="bold" font-size="32.00" fill="#29235c">(!)</text>
<polygon fill="#e7e2dd" stroke="transparent" points="94.25,-2205.39 94.25,-2265.39 533.25,-2265.39 533.25,-2205.39 94.25,-2205.39"/>
<polygon fill="none" stroke="#29235c" points="94.25,-2205.39 94.25,-2265.39 533.25,-2265.39 533.25,-2205.39 94.25,-2205.39"/>
<text text-anchor="start" x="105.25" y="-2225.59" font-family="Helvetica,sans-Serif" font-size="32.00" fill="#29235c">category_id &#160;&#160;&#160;</text>
<text text-anchor="start" x="406.7" y="-2226.59" font-family="Helvetica,sans-Serif" font-style="italic" font-size="32.00" fill="#29235c">bigint</text>
<text text-anchor="start" x="483.16" y="-2226.59" font-family="Helvetica,sans-Serif" font-size="32.00" fill="#29235c"> </text>
<text text-anchor="start" x="492.05" y="-2226.59" font-family="Helvetica,sans-Serif" font-weight="bold" font-size="32.00" fill="#29235c">(!)</text>
<polygon fill="#e7e2dd" stroke="transparent" points="94.25,-2145.39 94.25,-2205.39 533.25,-2205.39 533.25,-2145.39 94.25,-2145.39"/>
<polygon fill="none" stroke="#29235c" points="94.25,-2145.39 94.25,-2205.39 533.25,-2205.39 533.25,-2145.39 94.25,-2145.39"/>
<text text-anchor="start" x="105.25" y="-2165.59" font-family="Helvetica,sans-Serif" font-size="32.00" fill="#29235c">created_date &#160;&#160;&#160;</text>
<text text-anchor="start" x="335.6" y="-2166.59" font-family="Helvetica,sans-Serif" font-style="italic" font-size="32.00" fill="#29235c">timestamp</text>
<text text-anchor="start" x="483.16" y="-2166.59" font-family="Helvetica,sans-Serif" font-size="32.00" fill="#29235c"> </text>
<text text-anchor="start" x="492.05" y="-2166.59" font-family="Helvetica,sans-Serif" font-weight="bold" font-size="32.00" fill="#29235c">(!)</text>
<polygon fill="#e7e2dd" stroke="transparent" points="94.25,-2085.39 94.25,-2145.39 533.25,-2145.39 533.25,-2085.39 94.25,-2085.39"/>
<polygon fill="none" stroke="#29235c" points="94.25,-2085.39 94.25,-2145.39 533.25,-2145.39 533.25,-2085.39 94.25,-2085.39"/>
<text text-anchor="start" x="105.13" y="-2105.59" font-family="Helvetica,sans-Serif" font-size="32.00" fill="#29235c">updated_date &#160;&#160;&#160;</text>
<text text-anchor="start" x="335.92" y="-2106.59" font-family="Helvetica,sans-Serif" font-style="italic" font-size="32.00" fill="#29235c">timestamp</text>
<text text-anchor="start" x="483.48" y="-2106.59" font-family="Helvetica,sans-Serif" font-size="32.00" fill="#29235c"> </text>
<text text-anchor="start" x="492.37" y="-2106.59" font-family="Helvetica,sans-Serif" font-weight="bold" font-size="32.00" fill="#29235c">(!)</text>
<polygon fill="none" stroke="#29235c" stroke-width="2" points="92.75,-2084.39 92.75,-2446.39 533.75,-2446.39 533.75,-2084.39 92.75,-2084.39"/>
</g>
<!-- business_categories&#45;&gt;businesses -->
<!-- business_categories&#45;&gt;businesses -->
<g id="edge2" class="edge">
<title>business_categories:e&#45;&gt;businesses:w</title>
<path fill="none" stroke="#29235c" stroke-width="3" d="M534.25,-2295.39C713.04,-2295.39 601.25,-1978.8 768.97,-1966.74"/>
<polygon fill="#29235c" stroke="#29235c" stroke-width="3" points="769.19,-1970.23 779.06,-1966.39 768.95,-1963.24 769.19,-1970.23"/>
<text text-anchor="middle" x="772.84" y="-1975.99" font-family="Helvetica,sans-Serif" font-size="32.00" fill="#29235c">*</text>
<text text-anchor="middle" x="543.14" y="-2304.99" font-family="Helvetica,sans-Serif" font-size="32.00" fill="#29235c">1</text>
</g>
<!-- business_categories&#45;&gt;categories -->
<!-- business_categories&#45;&gt;categories -->
<g id="edge4" class="edge">
<title>business_categories:e&#45;&gt;categories:w</title>
<path fill="none" stroke="#29235c" stroke-width="3" d="M534.25,-2235.39C771.78,-2235.39 601.16,-2672.3 826.74,-2685.1"/>
<polygon fill="#29235c" stroke="#29235c" stroke-width="3" points="826.97,-2688.61 837.06,-2685.39 827.16,-2681.61 826.97,-2688.61"/>
<text text-anchor="middle" x="830.84" y="-2694.99" font-family="Helvetica,sans-Serif" font-size="32.00" fill="#29235c">*</text>
<text text-anchor="middle" x="543.14" y="-2244.99" font-family="Helvetica,sans-Serif" font-size="32.00" fill="#29235c">1</text>
</g>
<!-- reviews -->
<g id="reviews" class="node">
<title>reviews</title>
<ellipse fill="none" stroke="black" stroke-width="0" cx="313.25" cy="-1012.39" rx="313.5" ry="342.48"/>
<polygon fill="#1d71b8" stroke="transparent" points="94.25,-1192.39 94.25,-1252.39 533.25,-1252.39 533.25,-1192.39 94.25,-1192.39"/>
<polygon fill="none" stroke="#29235c" points="94.25,-1192.39 94.25,-1252.39 533.25,-1252.39 533.25,-1192.39 94.25,-1192.39"/>
<text text-anchor="start" x="197.28" y="-1213.59" font-family="Helvetica,sans-Serif" font-weight="bold" font-size="32.00" fill="#ffffff"> &#160;&#160;&#160;&#160;&#160;&#160;reviews &#160;&#160;&#160;&#160;&#160;&#160;</text>
<polygon fill="#e7e2dd" stroke="transparent" points="94.25,-1132.39 94.25,-1192.39 533.25,-1192.39 533.25,-1132.39 94.25,-1132.39"/>
<polygon fill="none" stroke="#29235c" points="94.25,-1132.39 94.25,-1192.39 533.25,-1192.39 533.25,-1132.39 94.25,-1132.39"/>
<text text-anchor="start" x="105.25" y="-1153.59" font-family="Helvetica,sans-Serif" font-weight="bold" font-size="32.00" fill="#29235c">id</text>
<text text-anchor="start" x="130.14" y="-1153.59" font-family="Helvetica,sans-Serif" font-size="32.00" fill="#29235c"> &#160;&#160;&#160;</text>
<text text-anchor="start" x="445.79" y="-1153.59" font-family="Helvetica,sans-Serif" font-style="italic" font-size="32.00" fill="#29235c">bigint</text>
<polygon fill="#e7e2dd" stroke="transparent" points="94.25,-1072.39 94.25,-1132.39 533.25,-1132.39 533.25,-1072.39 94.25,-1072.39"/>
<polygon fill="none" stroke="#29235c" points="94.25,-1072.39 94.25,-1132.39 533.25,-1132.39 533.25,-1072.39 94.25,-1072.39"/>
<text text-anchor="start" x="105.25" y="-1092.59" font-family="Helvetica,sans-Serif" font-size="32.00" fill="#29235c">text &#160;&#160;&#160;</text>
<text text-anchor="start" x="431.58" y="-1093.59" font-family="Helvetica,sans-Serif" font-style="italic" font-size="32.00" fill="#29235c">text</text>
<text text-anchor="start" x="483.16" y="-1093.59" font-family="Helvetica,sans-Serif" font-size="32.00" fill="#29235c"> </text>
<text text-anchor="start" x="492.05" y="-1093.59" font-family="Helvetica,sans-Serif" font-weight="bold" font-size="32.00" fill="#29235c">(!)</text>
<polygon fill="#e7e2dd" stroke="transparent" points="94.25,-1012.39 94.25,-1072.39 533.25,-1072.39 533.25,-1012.39 94.25,-1012.39"/>
<polygon fill="none" stroke="#29235c" points="94.25,-1012.39 94.25,-1072.39 533.25,-1072.39 533.25,-1012.39 94.25,-1012.39"/>
<text text-anchor="start" x="105.25" y="-1032.59" font-family="Helvetica,sans-Serif" font-size="32.00" fill="#29235c">rating &#160;&#160;&#160;</text>
<text text-anchor="start" x="449.37" y="-1033.59" font-family="Helvetica,sans-Serif" font-style="italic" font-size="32.00" fill="#29235c">int</text>
<text text-anchor="start" x="483.16" y="-1033.59" font-family="Helvetica,sans-Serif" font-size="32.00" fill="#29235c"> </text>
<text text-anchor="start" x="492.05" y="-1033.59" font-family="Helvetica,sans-Serif" font-weight="bold" font-size="32.00" fill="#29235c">(!)</text>
<polygon fill="#e7e2dd" stroke="transparent" points="94.25,-952.39 94.25,-1012.39 533.25,-1012.39 533.25,-952.39 94.25,-952.39"/>
<polygon fill="none" stroke="#29235c" points="94.25,-952.39 94.25,-1012.39 533.25,-1012.39 533.25,-952.39 94.25,-952.39"/>
<text text-anchor="start" x="105.25" y="-972.59" font-family="Helvetica,sans-Serif" font-size="32.00" fill="#29235c">user_id &#160;&#160;&#160;</text>
<text text-anchor="start" x="406.7" y="-973.59" font-family="Helvetica,sans-Serif" font-style="italic" font-size="32.00" fill="#29235c">bigint</text>
<text text-anchor="start" x="483.16" y="-973.59" font-family="Helvetica,sans-Serif" font-size="32.00" fill="#29235c"> </text>
<text text-anchor="start" x="492.05" y="-973.59" font-family="Helvetica,sans-Serif" font-weight="bold" font-size="32.00" fill="#29235c">(!)</text>
<polygon fill="#e7e2dd" stroke="transparent" points="94.25,-892.39 94.25,-952.39 533.25,-952.39 533.25,-892.39 94.25,-892.39"/>
<polygon fill="none" stroke="#29235c" points="94.25,-892.39 94.25,-952.39 533.25,-952.39 533.25,-892.39 94.25,-892.39"/>
<text text-anchor="start" x="105.25" y="-912.59" font-family="Helvetica,sans-Serif" font-size="32.00" fill="#29235c">business_id &#160;&#160;&#160;</text>
<text text-anchor="start" x="406.7" y="-913.59" font-family="Helvetica,sans-Serif" font-style="italic" font-size="32.00" fill="#29235c">bigint</text>
<text text-anchor="start" x="483.16" y="-913.59" font-family="Helvetica,sans-Serif" font-size="32.00" fill="#29235c"> </text>
<text text-anchor="start" x="492.05" y="-913.59" font-family="Helvetica,sans-Serif" font-weight="bold" font-size="32.00" fill="#29235c">(!)</text>
<polygon fill="#e7e2dd" stroke="transparent" points="94.25,-832.39 94.25,-892.39 533.25,-892.39 533.25,-832.39 94.25,-832.39"/>
<polygon fill="none" stroke="#29235c" points="94.25,-832.39 94.25,-892.39 533.25,-892.39 533.25,-832.39 94.25,-832.39"/>
<text text-anchor="start" x="105.25" y="-852.59" font-family="Helvetica,sans-Serif" font-size="32.00" fill="#29235c">created_date &#160;&#160;&#160;</text>
<text text-anchor="start" x="335.6" y="-853.59" font-family="Helvetica,sans-Serif" font-style="italic" font-size="32.00" fill="#29235c">timestamp</text>
<text text-anchor="start" x="483.16" y="-853.59" font-family="Helvetica,sans-Serif" font-size="32.00" fill="#29235c"> </text>
<text text-anchor="start" x="492.05" y="-853.59" font-family="Helvetica,sans-Serif" font-weight="bold" font-size="32.00" fill="#29235c">(!)</text>
<polygon fill="#e7e2dd" stroke="transparent" points="94.25,-772.39 94.25,-832.39 533.25,-832.39 533.25,-772.39 94.25,-772.39"/>
<polygon fill="none" stroke="#29235c" points="94.25,-772.39 94.25,-832.39 533.25,-832.39 533.25,-772.39 94.25,-772.39"/>
<text text-anchor="start" x="105.13" y="-792.59" font-family="Helvetica,sans-Serif" font-size="32.00" fill="#29235c">updated_date &#160;&#160;&#160;</text>
<text text-anchor="start" x="335.92" y="-793.59" font-family="Helvetica,sans-Serif" font-style="italic" font-size="32.00" fill="#29235c">timestamp</text>
<text text-anchor="start" x="483.48" y="-793.59" font-family="Helvetica,sans-Serif" font-size="32.00" fill="#29235c"> </text>
<text text-anchor="start" x="492.37" y="-793.59" font-family="Helvetica,sans-Serif" font-weight="bold" font-size="32.00" fill="#29235c">(!)</text>
<polygon fill="none" stroke="#29235c" stroke-width="2" points="92.75,-771.39 92.75,-1253.39 533.75,-1253.39 533.75,-771.39 92.75,-771.39"/>
</g>
<!-- reviews&#45;&gt;users -->
<!-- reviews&#45;&gt;users -->
<g id="edge6" class="edge">
<title>reviews:e&#45;&gt;users:w</title>
<path fill="none" stroke="#29235c" stroke-width="3" d="M534.25,-982.39C746.06,-982.39 555.99,-706.47 662.5,-523.39 716.16,-431.13 726.28,-352.45 827.03,-347.62"/>
<polygon fill="#29235c" stroke="#29235c" stroke-width="3" points="827.15,-351.12 837.06,-347.39 826.98,-344.12 827.15,-351.12"/>
<text text-anchor="middle" x="830.84" y="-318.59" font-family="Helvetica,sans-Serif" font-size="32.00" fill="#29235c">*</text>
<text text-anchor="middle" x="543.14" y="-953.59" font-family="Helvetica,sans-Serif" font-size="32.00" fill="#29235c">1</text>
</g>
<!-- reviews&#45;&gt;businesses -->
<!-- reviews&#45;&gt;businesses -->
<g id="edge8" class="edge">
<title>reviews:e&#45;&gt;businesses:w</title>
<path fill="none" stroke="#29235c" stroke-width="3" d="M534.25,-922.39C1007.34,-922.39 312.79,-1951.15 768.78,-1966.22"/>
<polygon fill="#29235c" stroke="#29235c" stroke-width="3" points="769.01,-1969.72 779.06,-1966.39 769.12,-1962.72 769.01,-1969.72"/>
<text text-anchor="middle" x="772.84" y="-1937.59" font-family="Helvetica,sans-Serif" font-size="32.00" fill="#29235c">*</text>
<text text-anchor="middle" x="543.14" y="-893.59" font-family="Helvetica,sans-Serif" font-size="32.00" fill="#29235c">1</text>
</g>
</g>
</svg>
