<?xml version="1.0" encoding="UTF-8" standalone="no"?>
<!DOCTYPE svg PUBLIC "-//W3C//DTD SVG 1.1//EN"
 "http://www.w3.org/Graphics/SVG/1.1/DTD/svg11.dtd">
<!-- Generated by graphviz version 2.47.0 (20210316.0004)
 -->
<!-- Title: dbml Pages: 1 -->
<svg width="2040pt" height="3031pt"
 viewBox="0.00 0.00 2040.10 3031.20" xmlns="http://www.w3.org/2000/svg" xmlns:xlink="http://www.w3.org/1999/xlink">
<g id="graph0" class="graph" transform="scale(1 1) rotate(0) translate(4 3027.2)">
<title>dbml</title>
<!-- price_type -->
<g id="price_type" class="node">
<title>price_type</title>
<ellipse fill="none" stroke="black" stroke-width="0" cx="1759.86" cy="-1485.81" rx="210.94" ry="257.27"/>
<polygon fill="#29235c" stroke="transparent" points="1612.86,-1605.81 1612.86,-1665.81 1906.86,-1665.81 1906.86,-1605.81 1612.86,-1605.81"/>
<polygon fill="none" stroke="#29235c" points="1612.86,-1605.81 1612.86,-1665.81 1906.86,-1665.81 1906.86,-1605.81 1612.86,-1605.81"/>
<text text-anchor="start" x="1623.82" y="-1627.01" font-family="Helvetica,sans-Serif" font-weight="bold" font-size="32.00" fill="#ffffff"> &#160;&#160;&#160;&#160;&#160;&#160;price_type &#160;&#160;&#160;&#160;&#160;&#160;</text>
<polygon fill="#e7e2dd" stroke="transparent" points="1612.86,-1545.81 1612.86,-1605.81 1906.86,-1605.81 1906.86,-1545.81 1612.86,-1545.81"/>
<polygon fill="none" stroke="#29235c" points="1612.86,-1545.81 1612.86,-1605.81 1906.86,-1605.81 1906.86,-1545.81 1612.86,-1545.81"/>
<text text-anchor="start" x="1715.4" y="-1567.01" font-family="Helvetica,sans-Serif" font-style="italic" font-size="32.00" fill="#1d71b8"> &#160;&#160;&#160;$ &#160;&#160;&#160;</text>
<polygon fill="#e7e2dd" stroke="transparent" points="1612.86,-1485.81 1612.86,-1545.81 1906.86,-1545.81 1906.86,-1485.81 1612.86,-1485.81"/>
<polygon fill="none" stroke="#29235c" points="1612.86,-1485.81 1612.86,-1545.81 1906.86,-1545.81 1906.86,-1485.81 1612.86,-1485.81"/>
<text text-anchor="start" x="1706.5" y="-1507.01" font-family="Helvetica,sans-Serif" font-style="italic" font-size="32.00" fill="#1d71b8"> &#160;&#160;&#160;$$ &#160;&#160;&#160;</text>
<polygon fill="#e7e2dd" stroke="transparent" points="1612.86,-1425.81 1612.86,-1485.81 1906.86,-1485.81 1906.86,-1425.81 1612.86,-1425.81"/>
<polygon fill="none" stroke="#29235c" points="1612.86,-1425.81 1612.86,-1485.81 1906.86,-1485.81 1906.86,-1425.81 1612.86,-1425.81"/>
<text text-anchor="start" x="1697.61" y="-1447.01" font-family="Helvetica,sans-Serif" font-style="italic" font-size="32.00" fill="#1d71b8"> &#160;&#160;&#160;$$$ &#160;&#160;&#160;</text>
<polygon fill="#e7e2dd" stroke="transparent" points="1612.86,-1365.81 1612.86,-1425.81 1906.86,-1425.81 1906.86,-1365.81 1612.86,-1365.81"/>
<polygon fill="none" stroke="#29235c" points="1612.86,-1365.81 1612.86,-1425.81 1906.86,-1425.81 1906.86,-1365.81 1612.86,-1365.81"/>
<text text-anchor="start" x="1688.72" y="-1387.01" font-family="Helvetica,sans-Serif" font-style="italic" font-size="32.00" fill="#1d71b8"> &#160;&#160;&#160;$$$$ &#160;&#160;&#160;</text>
<polygon fill="#e7e2dd" stroke="transparent" points="1612.86,-1305.81 1612.86,-1365.81 1906.86,-1365.81 1906.86,-1305.81 1612.86,-1305.81"/>
<polygon fill="none" stroke="#29235c" points="1612.86,-1305.81 1612.86,-1365.81 1906.86,-1365.81 1906.86,-1305.81 1612.86,-1305.81"/>
<text text-anchor="start" x="1679.82" y="-1327.01" font-family="Helvetica,sans-Serif" font-style="italic" font-size="32.00" fill="#1d71b8"> &#160;&#160;&#160;$$$$$ &#160;&#160;&#160;</text>
<polygon fill="none" stroke="#29235c" stroke-width="2" points="1611.86,-1304.81 1611.86,-1666.81 1907.86,-1666.81 1907.86,-1304.81 1611.86,-1304.81"/>
</g>
<!-- transaction_type -->
<g id="transaction_type" class="node">
<title>transaction_type</title>
<ellipse fill="none" stroke="black" stroke-width="0" cx="1759.86" cy="-1890.81" rx="272.47" ry="130.22"/>
<polygon fill="#29235c" stroke="transparent" points="1569.86,-1920.81 1569.86,-1980.81 1950.86,-1980.81 1950.86,-1920.81 1569.86,-1920.81"/>
<polygon fill="none" stroke="#29235c" points="1569.86,-1920.81 1569.86,-1980.81 1950.86,-1980.81 1950.86,-1920.81 1569.86,-1920.81"/>
<text text-anchor="start" x="1580.74" y="-1942.01" font-family="Helvetica,sans-Serif" font-weight="bold" font-size="32.00" fill="#ffffff"> &#160;&#160;&#160;&#160;&#160;&#160;transaction_type &#160;&#160;&#160;&#160;&#160;&#160;</text>
<polygon fill="#e7e2dd" stroke="transparent" points="1569.86,-1860.81 1569.86,-1920.81 1950.86,-1920.81 1950.86,-1860.81 1569.86,-1860.81"/>
<polygon fill="none" stroke="#29235c" points="1569.86,-1860.81 1569.86,-1920.81 1950.86,-1920.81 1950.86,-1860.81 1569.86,-1860.81"/>
<text text-anchor="start" x="1678.56" y="-1882.01" font-family="Helvetica,sans-Serif" font-style="italic" font-size="32.00" fill="#1d71b8"> &#160;&#160;&#160;pickup &#160;&#160;&#160;</text>
<polygon fill="#e7e2dd" stroke="transparent" points="1569.86,-1800.81 1569.86,-1860.81 1950.86,-1860.81 1950.86,-1800.81 1569.86,-1800.81"/>
<polygon fill="none" stroke="#29235c" points="1569.86,-1800.81 1569.86,-1860.81 1950.86,-1860.81 1950.86,-1800.81 1569.86,-1800.81"/>
<text text-anchor="start" x="1669.68" y="-1822.01" font-family="Helvetica,sans-Serif" font-style="italic" font-size="32.00" fill="#1d71b8"> &#160;&#160;&#160;delivery &#160;&#160;&#160;</text>
<polygon fill="none" stroke="#29235c" stroke-width="2" points="1568.36,-1799.81 1568.36,-1981.81 1951.36,-1981.81 1951.36,-1799.81 1568.36,-1799.81"/>
</g>
<!-- users -->
<g id="users" class="node">
<title>users</title>
<ellipse fill="none" stroke="black" stroke-width="0" cx="1057.06" cy="-299.81" rx="313.5" ry="299.63"/>
<polygon fill="#1d71b8" stroke="transparent" points="838.06,-449.81 838.06,-509.81 1277.06,-509.81 1277.06,-449.81 838.06,-449.81"/>
<polygon fill="none" stroke="#29235c" points="838.06,-449.81 838.06,-509.81 1277.06,-509.81 1277.06,-449.81 838.06,-449.81"/>
<text text-anchor="start" x="956.2" y="-471.01" font-family="Helvetica,sans-Serif" font-weight="bold" font-size="32.00" fill="#ffffff"> &#160;&#160;&#160;&#160;&#160;&#160;users &#160;&#160;&#160;&#160;&#160;&#160;</text>
<polygon fill="#e7e2dd" stroke="transparent" points="838.06,-389.81 838.06,-449.81 1277.06,-449.81 1277.06,-389.81 838.06,-389.81"/>
<polygon fill="none" stroke="#29235c" points="838.06,-389.81 838.06,-449.81 1277.06,-449.81 1277.06,-389.81 838.06,-389.81"/>
<text text-anchor="start" x="849.06" y="-411.01" font-family="Helvetica,sans-Serif" font-weight="bold" font-size="32.00" fill="#29235c">id</text>
<text text-anchor="start" x="873.95" y="-411.01" font-family="Helvetica,sans-Serif" font-size="32.00" fill="#29235c"> &#160;&#160;&#160;</text>
<text text-anchor="start" x="1189.6" y="-411.01" font-family="Helvetica,sans-Serif" font-style="italic" font-size="32.00" fill="#29235c">bigint</text>
<polygon fill="#e7e2dd" stroke="transparent" points="838.06,-329.81 838.06,-389.81 1277.06,-389.81 1277.06,-329.81 838.06,-329.81"/>
<polygon fill="none" stroke="#29235c" points="838.06,-329.81 838.06,-389.81 1277.06,-389.81 1277.06,-329.81 838.06,-329.81"/>
<text text-anchor="start" x="849.06" y="-350.01" font-family="Helvetica,sans-Serif" font-size="32.00" fill="#29235c">name &#160;&#160;&#160;</text>
<text text-anchor="start" x="1045.63" y="-351.01" font-family="Helvetica,sans-Serif" font-style="italic" font-size="32.00" fill="#29235c">varchar(127)</text>
<text text-anchor="start" x="1226.97" y="-351.01" font-family="Helvetica,sans-Serif" font-size="32.00" fill="#29235c"> </text>
<text text-anchor="start" x="1235.86" y="-351.01" font-family="Helvetica,sans-Serif" font-weight="bold" font-size="32.00" fill="#29235c">(!)</text>
<polygon fill="#e7e2dd" stroke="transparent" points="838.06,-269.81 838.06,-329.81 1277.06,-329.81 1277.06,-269.81 838.06,-269.81"/>
<polygon fill="none" stroke="#29235c" points="838.06,-269.81 838.06,-329.81 1277.06,-329.81 1277.06,-269.81 838.06,-269.81"/>
<text text-anchor="start" x="849.06" y="-290.01" font-family="Helvetica,sans-Serif" font-size="32.00" fill="#29235c">profile_url &#160;&#160;&#160;</text>
<text text-anchor="start" x="1045.63" y="-291.01" font-family="Helvetica,sans-Serif" font-style="italic" font-size="32.00" fill="#29235c">varchar(255)</text>
<text text-anchor="start" x="1226.97" y="-291.01" font-family="Helvetica,sans-Serif" font-size="32.00" fill="#29235c"> </text>
<text text-anchor="start" x="1235.86" y="-291.01" font-family="Helvetica,sans-Serif" font-weight="bold" font-size="32.00" fill="#29235c">(!)</text>
<polygon fill="#e7e2dd" stroke="transparent" points="838.06,-209.81 838.06,-269.81 1277.06,-269.81 1277.06,-209.81 838.06,-209.81"/>
<polygon fill="none" stroke="#29235c" points="838.06,-209.81 838.06,-269.81 1277.06,-269.81 1277.06,-209.81 838.06,-209.81"/>
<text text-anchor="start" x="849.06" y="-230.01" font-family="Helvetica,sans-Serif" font-size="32.00" fill="#29235c">image_url &#160;&#160;&#160;</text>
<text text-anchor="start" x="1045.63" y="-231.01" font-family="Helvetica,sans-Serif" font-style="italic" font-size="32.00" fill="#29235c">varchar(255)</text>
<text text-anchor="start" x="1226.97" y="-231.01" font-family="Helvetica,sans-Serif" font-size="32.00" fill="#29235c"> </text>
<text text-anchor="start" x="1235.86" y="-231.01" font-family="Helvetica,sans-Serif" font-weight="bold" font-size="32.00" fill="#29235c">(!)</text>
<polygon fill="#e7e2dd" stroke="transparent" points="838.06,-149.81 838.06,-209.81 1277.06,-209.81 1277.06,-149.81 838.06,-149.81"/>
<polygon fill="none" stroke="#29235c" points="838.06,-149.81 838.06,-209.81 1277.06,-209.81 1277.06,-149.81 838.06,-149.81"/>
<text text-anchor="start" x="849.06" y="-170.01" font-family="Helvetica,sans-Serif" font-size="32.00" fill="#29235c">created_date &#160;&#160;&#160;</text>
<text text-anchor="start" x="1079.41" y="-171.01" font-family="Helvetica,sans-Serif" font-style="italic" font-size="32.00" fill="#29235c">timestamp</text>
<text text-anchor="start" x="1226.97" y="-171.01" font-family="Helvetica,sans-Serif" font-size="32.00" fill="#29235c"> </text>
<text text-anchor="start" x="1235.86" y="-171.01" font-family="Helvetica,sans-Serif" font-weight="bold" font-size="32.00" fill="#29235c">(!)</text>
<polygon fill="#e7e2dd" stroke="transparent" points="838.06,-89.81 838.06,-149.81 1277.06,-149.81 1277.06,-89.81 838.06,-89.81"/>
<polygon fill="none" stroke="#29235c" points="838.06,-89.81 838.06,-149.81 1277.06,-149.81 1277.06,-89.81 838.06,-89.81"/>
<text text-anchor="start" x="848.94" y="-110.01" font-family="Helvetica,sans-Serif" font-size="32.00" fill="#29235c">updated_date &#160;&#160;&#160;</text>
<text text-anchor="start" x="1079.74" y="-111.01" font-family="Helvetica,sans-Serif" font-style="italic" font-size="32.00" fill="#29235c">timestamp</text>
<text text-anchor="start" x="1227.3" y="-111.01" font-family="Helvetica,sans-Serif" font-size="32.00" fill="#29235c"> </text>
<text text-anchor="start" x="1236.19" y="-111.01" font-family="Helvetica,sans-Serif" font-weight="bold" font-size="32.00" fill="#29235c">(!)</text>
<polygon fill="none" stroke="#29235c" stroke-width="2" points="836.56,-88.81 836.56,-510.81 1277.56,-510.81 1277.56,-88.81 836.56,-88.81"/>
</g>
<!-- businesses -->
<g id="businesses" class="node">
<title>businesses</title>
<ellipse fill="none" stroke="black" stroke-width="0" cx="1057.06" cy="-1553.81" rx="394.63" ry="936.42"/>
<polygon fill="#1d71b8" stroke="transparent" points="780.06,-2153.81 780.06,-2213.81 1334.06,-2213.81 1334.06,-2153.81 780.06,-2153.81"/>
<polygon fill="none" stroke="#29235c" points="780.06,-2153.81 780.06,-2213.81 1334.06,-2213.81 1334.06,-2153.81 780.06,-2153.81"/>
<text text-anchor="start" x="914.79" y="-2175.01" font-family="Helvetica,sans-Serif" font-weight="bold" font-size="32.00" fill="#ffffff"> &#160;&#160;&#160;&#160;&#160;&#160;businesses &#160;&#160;&#160;&#160;&#160;&#160;</text>
<polygon fill="#e7e2dd" stroke="transparent" points="780.06,-2093.81 780.06,-2153.81 1334.06,-2153.81 1334.06,-2093.81 780.06,-2093.81"/>
<polygon fill="none" stroke="#29235c" points="780.06,-2093.81 780.06,-2153.81 1334.06,-2153.81 1334.06,-2093.81 780.06,-2093.81"/>
<text text-anchor="start" x="791.06" y="-2115.01" font-family="Helvetica,sans-Serif" font-weight="bold" font-size="32.00" fill="#29235c">id</text>
<text text-anchor="start" x="815.95" y="-2115.01" font-family="Helvetica,sans-Serif" font-size="32.00" fill="#29235c"> &#160;&#160;&#160;</text>
<text text-anchor="start" x="1246.6" y="-2115.01" font-family="Helvetica,sans-Serif" font-style="italic" font-size="32.00" fill="#29235c">bigint</text>
<polygon fill="#e7e2dd" stroke="transparent" points="780.06,-2033.81 780.06,-2093.81 1334.06,-2093.81 1334.06,-2033.81 780.06,-2033.81"/>
<polygon fill="none" stroke="#29235c" points="780.06,-2033.81 780.06,-2093.81 1334.06,-2093.81 1334.06,-2033.81 780.06,-2033.81"/>
<text text-anchor="start" x="791.06" y="-2054.01" font-family="Helvetica,sans-Serif" font-size="32.00" fill="#29235c">alias &#160;&#160;&#160;</text>
<text text-anchor="start" x="1102.63" y="-2055.01" font-family="Helvetica,sans-Serif" font-style="italic" font-size="32.00" fill="#29235c">varchar(127)</text>
<text text-anchor="start" x="1283.97" y="-2055.01" font-family="Helvetica,sans-Serif" font-size="32.00" fill="#29235c"> </text>
<text text-anchor="start" x="1292.86" y="-2055.01" font-family="Helvetica,sans-Serif" font-weight="bold" font-size="32.00" fill="#29235c">(!)</text>
<polygon fill="#e7e2dd" stroke="transparent" points="780.06,-1973.81 780.06,-2033.81 1334.06,-2033.81 1334.06,-1973.81 780.06,-1973.81"/>
<polygon fill="none" stroke="#29235c" points="780.06,-1973.81 780.06,-2033.81 1334.06,-2033.81 1334.06,-1973.81 780.06,-1973.81"/>
<text text-anchor="start" x="791.06" y="-1994.01" font-family="Helvetica,sans-Serif" font-size="32.00" fill="#29235c">name &#160;&#160;&#160;</text>
<text text-anchor="start" x="1102.63" y="-1995.01" font-family="Helvetica,sans-Serif" font-style="italic" font-size="32.00" fill="#29235c">varchar(255)</text>
<text text-anchor="start" x="1283.97" y="-1995.01" font-family="Helvetica,sans-Serif" font-size="32.00" fill="#29235c"> </text>
<text text-anchor="start" x="1292.86" y="-1995.01" font-family="Helvetica,sans-Serif" font-weight="bold" font-size="32.00" fill="#29235c">(!)</text>
<polygon fill="#e7e2dd" stroke="transparent" points="780.06,-1913.81 780.06,-1973.81 1334.06,-1973.81 1334.06,-1913.81 780.06,-1913.81"/>
<polygon fill="none" stroke="#29235c" points="780.06,-1913.81 780.06,-1973.81 1334.06,-1973.81 1334.06,-1913.81 780.06,-1913.81"/>
<text text-anchor="start" x="791.06" y="-1934.01" font-family="Helvetica,sans-Serif" font-size="32.00" fill="#29235c">image_url &#160;&#160;&#160;</text>
<text text-anchor="start" x="1102.63" y="-1935.01" font-family="Helvetica,sans-Serif" font-style="italic" font-size="32.00" fill="#29235c">varchar(255)</text>
<text text-anchor="start" x="1283.97" y="-1935.01" font-family="Helvetica,sans-Serif" font-size="32.00" fill="#29235c"> </text>
<text text-anchor="start" x="1292.86" y="-1935.01" font-family="Helvetica,sans-Serif" font-weight="bold" font-size="32.00" fill="#29235c">(!)</text>
<polygon fill="#e7e2dd" stroke="transparent" points="780.06,-1853.81 780.06,-1913.81 1334.06,-1913.81 1334.06,-1853.81 780.06,-1853.81"/>
<polygon fill="none" stroke="#29235c" points="780.06,-1853.81 780.06,-1913.81 1334.06,-1913.81 1334.06,-1853.81 780.06,-1853.81"/>
<text text-anchor="start" x="791.06" y="-1874.01" font-family="Helvetica,sans-Serif" font-size="32.00" fill="#29235c">transactions &#160;&#160;&#160;</text>
<text text-anchor="start" x="1049.23" y="-1875.01" font-family="Helvetica,sans-Serif" font-style="italic" font-size="32.00" fill="#29235c">transaction_type</text>
<text text-anchor="start" x="1283.97" y="-1875.01" font-family="Helvetica,sans-Serif" font-size="32.00" fill="#29235c"> </text>
<text text-anchor="start" x="1292.86" y="-1875.01" font-family="Helvetica,sans-Serif" font-weight="bold" font-size="32.00" fill="#29235c">(!)</text>
<polygon fill="#e7e2dd" stroke="transparent" points="780.06,-1793.81 780.06,-1853.81 1334.06,-1853.81 1334.06,-1793.81 780.06,-1793.81"/>
<polygon fill="none" stroke="#29235c" points="780.06,-1793.81 780.06,-1853.81 1334.06,-1853.81 1334.06,-1793.81 780.06,-1793.81"/>
<text text-anchor="start" x="791.06" y="-1814.01" font-family="Helvetica,sans-Serif" font-size="32.00" fill="#29235c">latitude &#160;&#160;&#160;</text>
<text text-anchor="start" x="1223.51" y="-1815.01" font-family="Helvetica,sans-Serif" font-style="italic" font-size="32.00" fill="#29235c">float</text>
<text text-anchor="start" x="1283.97" y="-1815.01" font-family="Helvetica,sans-Serif" font-size="32.00" fill="#29235c"> </text>
<text text-anchor="start" x="1292.86" y="-1815.01" font-family="Helvetica,sans-Serif" font-weight="bold" font-size="32.00" fill="#29235c">(!)</text>
<polygon fill="#e7e2dd" stroke="transparent" points="780.06,-1733.81 780.06,-1793.81 1334.06,-1793.81 1334.06,-1733.81 780.06,-1733.81"/>
<polygon fill="none" stroke="#29235c" points="780.06,-1733.81 780.06,-1793.81 1334.06,-1793.81 1334.06,-1733.81 780.06,-1733.81"/>
<text text-anchor="start" x="791.06" y="-1754.01" font-family="Helvetica,sans-Serif" font-size="32.00" fill="#29235c">longitude &#160;&#160;&#160;</text>
<text text-anchor="start" x="1223.51" y="-1755.01" font-family="Helvetica,sans-Serif" font-style="italic" font-size="32.00" fill="#29235c">float</text>
<text text-anchor="start" x="1283.97" y="-1755.01" font-family="Helvetica,sans-Serif" font-size="32.00" fill="#29235c"> </text>
<text text-anchor="start" x="1292.86" y="-1755.01" font-family="Helvetica,sans-Serif" font-weight="bold" font-size="32.00" fill="#29235c">(!)</text>
<polygon fill="#e7e2dd" stroke="transparent" points="780.06,-1673.81 780.06,-1733.81 1334.06,-1733.81 1334.06,-1673.81 780.06,-1673.81"/>
<polygon fill="none" stroke="#29235c" points="780.06,-1673.81 780.06,-1733.81 1334.06,-1733.81 1334.06,-1673.81 780.06,-1673.81"/>
<text text-anchor="start" x="791.06" y="-1694.01" font-family="Helvetica,sans-Serif" font-size="32.00" fill="#29235c">price &#160;&#160;&#160;</text>
<text text-anchor="start" x="1136.38" y="-1695.01" font-family="Helvetica,sans-Serif" font-style="italic" font-size="32.00" fill="#29235c">price_type</text>
<text text-anchor="start" x="1283.97" y="-1695.01" font-family="Helvetica,sans-Serif" font-size="32.00" fill="#29235c"> </text>
<text text-anchor="start" x="1292.86" y="-1695.01" font-family="Helvetica,sans-Serif" font-weight="bold" font-size="32.00" fill="#29235c">(!)</text>
<polygon fill="#e7e2dd" stroke="transparent" points="780.06,-1613.81 780.06,-1673.81 1334.06,-1673.81 1334.06,-1613.81 780.06,-1613.81"/>
<polygon fill="none" stroke="#29235c" points="780.06,-1613.81 780.06,-1673.81 1334.06,-1673.81 1334.06,-1613.81 780.06,-1613.81"/>
<text text-anchor="start" x="790.56" y="-1634.01" font-family="Helvetica,sans-Serif" font-size="32.00" fill="#29235c">location_address_1 &#160;&#160;&#160;</text>
<text text-anchor="start" x="1102.84" y="-1635.01" font-family="Helvetica,sans-Serif" font-style="italic" font-size="32.00" fill="#29235c">varchar(255)</text>
<text text-anchor="start" x="1284.19" y="-1635.01" font-family="Helvetica,sans-Serif" font-size="32.00" fill="#29235c"> </text>
<text text-anchor="start" x="1293.08" y="-1635.01" font-family="Helvetica,sans-Serif" font-weight="bold" font-size="32.00" fill="#29235c">(!)</text>
<polygon fill="#e7e2dd" stroke="transparent" points="780.06,-1553.81 780.06,-1613.81 1334.06,-1613.81 1334.06,-1553.81 780.06,-1553.81"/>
<polygon fill="none" stroke="#29235c" points="780.06,-1553.81 780.06,-1613.81 1334.06,-1613.81 1334.06,-1553.81 780.06,-1553.81"/>
<text text-anchor="start" x="791.06" y="-1574.01" font-family="Helvetica,sans-Serif" font-size="32.00" fill="#29235c">location_address_2 &#160;&#160;&#160;</text>
<text text-anchor="start" x="1141.72" y="-1575.01" font-family="Helvetica,sans-Serif" font-style="italic" font-size="32.00" fill="#29235c">varchar(255)</text>
<polygon fill="#e7e2dd" stroke="transparent" points="780.06,-1493.81 780.06,-1553.81 1334.06,-1553.81 1334.06,-1493.81 780.06,-1493.81"/>
<polygon fill="none" stroke="#29235c" points="780.06,-1493.81 780.06,-1553.81 1334.06,-1553.81 1334.06,-1493.81 780.06,-1493.81"/>
<text text-anchor="start" x="791.06" y="-1514.01" font-family="Helvetica,sans-Serif" font-size="32.00" fill="#29235c">location_address_3 &#160;&#160;&#160;</text>
<text text-anchor="start" x="1141.72" y="-1515.01" font-family="Helvetica,sans-Serif" font-style="italic" font-size="32.00" fill="#29235c">varchar(255)</text>
<polygon fill="#e7e2dd" stroke="transparent" points="780.06,-1433.81 780.06,-1493.81 1334.06,-1493.81 1334.06,-1433.81 780.06,-1433.81"/>
<polygon fill="none" stroke="#29235c" points="780.06,-1433.81 780.06,-1493.81 1334.06,-1493.81 1334.06,-1433.81 780.06,-1433.81"/>
<text text-anchor="start" x="791.06" y="-1454.01" font-family="Helvetica,sans-Serif" font-size="32.00" fill="#29235c">city &#160;&#160;&#160;</text>
<text text-anchor="start" x="1102.63" y="-1455.01" font-family="Helvetica,sans-Serif" font-style="italic" font-size="32.00" fill="#29235c">varchar(255)</text>
<text text-anchor="start" x="1283.97" y="-1455.01" font-family="Helvetica,sans-Serif" font-size="32.00" fill="#29235c"> </text>
<text text-anchor="start" x="1292.86" y="-1455.01" font-family="Helvetica,sans-Serif" font-weight="bold" font-size="32.00" fill="#29235c">(!)</text>
<polygon fill="#e7e2dd" stroke="transparent" points="780.06,-1373.81 780.06,-1433.81 1334.06,-1433.81 1334.06,-1373.81 780.06,-1373.81"/>
<polygon fill="none" stroke="#29235c" points="780.06,-1373.81 780.06,-1433.81 1334.06,-1433.81 1334.06,-1373.81 780.06,-1373.81"/>
<text text-anchor="start" x="791.06" y="-1394.01" font-family="Helvetica,sans-Serif" font-size="32.00" fill="#29235c">zip_code &#160;&#160;&#160;</text>
<text text-anchor="start" x="1138.2" y="-1395.01" font-family="Helvetica,sans-Serif" font-style="italic" font-size="32.00" fill="#29235c">varchar(7)</text>
<text text-anchor="start" x="1283.97" y="-1395.01" font-family="Helvetica,sans-Serif" font-size="32.00" fill="#29235c"> </text>
<text text-anchor="start" x="1292.86" y="-1395.01" font-family="Helvetica,sans-Serif" font-weight="bold" font-size="32.00" fill="#29235c">(!)</text>
<polygon fill="#e7e2dd" stroke="transparent" points="780.06,-1313.81 780.06,-1373.81 1334.06,-1373.81 1334.06,-1313.81 780.06,-1313.81"/>
<polygon fill="none" stroke="#29235c" points="780.06,-1313.81 780.06,-1373.81 1334.06,-1373.81 1334.06,-1313.81 780.06,-1313.81"/>
<text text-anchor="start" x="791.06" y="-1334.01" font-family="Helvetica,sans-Serif" font-size="32.00" fill="#29235c">country &#160;&#160;&#160;</text>
<text text-anchor="start" x="1138.2" y="-1335.01" font-family="Helvetica,sans-Serif" font-style="italic" font-size="32.00" fill="#29235c">varchar(3)</text>
<text text-anchor="start" x="1283.97" y="-1335.01" font-family="Helvetica,sans-Serif" font-size="32.00" fill="#29235c"> </text>
<text text-anchor="start" x="1292.86" y="-1335.01" font-family="Helvetica,sans-Serif" font-weight="bold" font-size="32.00" fill="#29235c">(!)</text>
<polygon fill="#e7e2dd" stroke="transparent" points="780.06,-1253.81 780.06,-1313.81 1334.06,-1313.81 1334.06,-1253.81 780.06,-1253.81"/>
<polygon fill="none" stroke="#29235c" points="780.06,-1253.81 780.06,-1313.81 1334.06,-1313.81 1334.06,-1253.81 780.06,-1253.81"/>
<text text-anchor="start" x="791.06" y="-1274.01" font-family="Helvetica,sans-Serif" font-size="32.00" fill="#29235c">state &#160;&#160;&#160;</text>
<text text-anchor="start" x="1138.2" y="-1275.01" font-family="Helvetica,sans-Serif" font-style="italic" font-size="32.00" fill="#29235c">varchar(3)</text>
<text text-anchor="start" x="1283.97" y="-1275.01" font-family="Helvetica,sans-Serif" font-size="32.00" fill="#29235c"> </text>
<text text-anchor="start" x="1292.86" y="-1275.01" font-family="Helvetica,sans-Serif" font-weight="bold" font-size="32.00" fill="#29235c">(!)</text>
<polygon fill="#e7e2dd" stroke="transparent" points="780.06,-1193.81 780.06,-1253.81 1334.06,-1253.81 1334.06,-1193.81 780.06,-1193.81"/>
<polygon fill="none" stroke="#29235c" points="780.06,-1193.81 780.06,-1253.81 1334.06,-1253.81 1334.06,-1193.81 780.06,-1193.81"/>
<text text-anchor="start" x="791.06" y="-1214.01" font-family="Helvetica,sans-Serif" font-size="32.00" fill="#29235c">display_address &#160;&#160;&#160;</text>
<text text-anchor="start" x="1102.63" y="-1215.01" font-family="Helvetica,sans-Serif" font-style="italic" font-size="32.00" fill="#29235c">varchar(255)</text>
<text text-anchor="start" x="1283.97" y="-1215.01" font-family="Helvetica,sans-Serif" font-size="32.00" fill="#29235c"> </text>
<text text-anchor="start" x="1292.86" y="-1215.01" font-family="Helvetica,sans-Serif" font-weight="bold" font-size="32.00" fill="#29235c">(!)</text>
<polygon fill="#e7e2dd" stroke="transparent" points="780.06,-1133.81 780.06,-1193.81 1334.06,-1193.81 1334.06,-1133.81 780.06,-1133.81"/>
<polygon fill="none" stroke="#29235c" points="780.06,-1133.81 780.06,-1193.81 1334.06,-1193.81 1334.06,-1133.81 780.06,-1133.81"/>
<text text-anchor="start" x="791.06" y="-1154.01" font-family="Helvetica,sans-Serif" font-size="32.00" fill="#29235c">phone &#160;&#160;&#160;</text>
<text text-anchor="start" x="1120.42" y="-1155.01" font-family="Helvetica,sans-Serif" font-style="italic" font-size="32.00" fill="#29235c">varchar(31)</text>
<text text-anchor="start" x="1283.97" y="-1155.01" font-family="Helvetica,sans-Serif" font-size="32.00" fill="#29235c"> </text>
<text text-anchor="start" x="1292.86" y="-1155.01" font-family="Helvetica,sans-Serif" font-weight="bold" font-size="32.00" fill="#29235c">(!)</text>
<polygon fill="#e7e2dd" stroke="transparent" points="780.06,-1073.81 780.06,-1133.81 1334.06,-1133.81 1334.06,-1073.81 780.06,-1073.81"/>
<polygon fill="none" stroke="#29235c" points="780.06,-1073.81 780.06,-1133.81 1334.06,-1133.81 1334.06,-1073.81 780.06,-1073.81"/>
<text text-anchor="start" x="791.06" y="-1094.01" font-family="Helvetica,sans-Serif" font-size="32.00" fill="#29235c">display_phone &#160;&#160;&#160;</text>
<text text-anchor="start" x="1120.42" y="-1095.01" font-family="Helvetica,sans-Serif" font-style="italic" font-size="32.00" fill="#29235c">varchar(31)</text>
<text text-anchor="start" x="1283.97" y="-1095.01" font-family="Helvetica,sans-Serif" font-size="32.00" fill="#29235c"> </text>
<text text-anchor="start" x="1292.86" y="-1095.01" font-family="Helvetica,sans-Serif" font-weight="bold" font-size="32.00" fill="#29235c">(!)</text>
<polygon fill="#e7e2dd" stroke="transparent" points="780.06,-1013.81 780.06,-1073.81 1334.06,-1073.81 1334.06,-1013.81 780.06,-1013.81"/>
<polygon fill="none" stroke="#29235c" points="780.06,-1013.81 780.06,-1073.81 1334.06,-1073.81 1334.06,-1013.81 780.06,-1013.81"/>
<text text-anchor="start" x="791.06" y="-1034.01" font-family="Helvetica,sans-Serif" font-size="32.00" fill="#29235c">distance &#160;&#160;&#160;</text>
<text text-anchor="start" x="1223.51" y="-1035.01" font-family="Helvetica,sans-Serif" font-style="italic" font-size="32.00" fill="#29235c">float</text>
<text text-anchor="start" x="1283.97" y="-1035.01" font-family="Helvetica,sans-Serif" font-size="32.00" fill="#29235c"> </text>
<text text-anchor="start" x="1292.86" y="-1035.01" font-family="Helvetica,sans-Serif" font-weight="bold" font-size="32.00" fill="#29235c">(!)</text>
<polygon fill="#e7e2dd" stroke="transparent" points="780.06,-953.81 780.06,-1013.81 1334.06,-1013.81 1334.06,-953.81 780.06,-953.81"/>
<polygon fill="none" stroke="#29235c" points="780.06,-953.81 780.06,-1013.81 1334.06,-1013.81 1334.06,-953.81 780.06,-953.81"/>
<text text-anchor="start" x="791.06" y="-974.01" font-family="Helvetica,sans-Serif" font-size="32.00" fill="#29235c">created_date &#160;&#160;&#160;</text>
<text text-anchor="start" x="1136.41" y="-975.01" font-family="Helvetica,sans-Serif" font-style="italic" font-size="32.00" fill="#29235c">timestamp</text>
<text text-anchor="start" x="1283.97" y="-975.01" font-family="Helvetica,sans-Serif" font-size="32.00" fill="#29235c"> </text>
<text text-anchor="start" x="1292.86" y="-975.01" font-family="Helvetica,sans-Serif" font-weight="bold" font-size="32.00" fill="#29235c">(!)</text>
<polygon fill="#e7e2dd" stroke="transparent" points="780.06,-893.81 780.06,-953.81 1334.06,-953.81 1334.06,-893.81 780.06,-893.81"/>
<polygon fill="none" stroke="#29235c" points="780.06,-893.81 780.06,-953.81 1334.06,-953.81 1334.06,-893.81 780.06,-893.81"/>
<text text-anchor="start" x="791.06" y="-914.01" font-family="Helvetica,sans-Serif" font-size="32.00" fill="#29235c">updated_date &#160;&#160;&#160;</text>
<text text-anchor="start" x="1136.41" y="-915.01" font-family="Helvetica,sans-Serif" font-style="italic" font-size="32.00" fill="#29235c">timestamp</text>
<text text-anchor="start" x="1283.97" y="-915.01" font-family="Helvetica,sans-Serif" font-size="32.00" fill="#29235c"> </text>
<text text-anchor="start" x="1292.86" y="-915.01" font-family="Helvetica,sans-Serif" font-weight="bold" font-size="32.00" fill="#29235c">(!)</text>
<polygon fill="none" stroke="#29235c" stroke-width="2" points="779.06,-892.81 779.06,-2214.81 1335.06,-2214.81 1335.06,-892.81 779.06,-892.81"/>
</g>
<!-- businesses&#45;&gt;price_type -->
<g id="edge10" class="edge">
<title>businesses:e&#45;&gt;price_type:w</title>
<path fill="none" stroke="#29235c" stroke-width="3" d="M1335.06,-1703.81C1461.74,-1703.81 1485.18,-1635.81 1611.86,-1635.81"/>
</g>
<!-- businesses&#45;&gt;transaction_type -->
<g id="edge9" class="edge">
<title>businesses:e&#45;&gt;transaction_type:w</title>
<path fill="none" stroke="#29235c" stroke-width="3" d="M1335.06,-1883.81C1443.16,-1883.81 1460.77,-1950.81 1568.86,-1950.81"/>
</g>
<!-- categories -->
<g id="categories" class="node">
<title>categories</title>
<ellipse fill="none" stroke="black" stroke-width="0" cx="1057.06" cy="-2765.81" rx="313.5" ry="257.27"/>
<polygon fill="#1d71b8" stroke="transparent" points="838.06,-2885.81 838.06,-2945.81 1277.06,-2945.81 1277.06,-2885.81 838.06,-2885.81"/>
<polygon fill="none" stroke="#29235c" points="838.06,-2885.81 838.06,-2945.81 1277.06,-2945.81 1277.06,-2885.81 838.06,-2885.81"/>
<text text-anchor="start" x="921.52" y="-2907.01" font-family="Helvetica,sans-Serif" font-weight="bold" font-size="32.00" fill="#ffffff"> &#160;&#160;&#160;&#160;&#160;&#160;categories &#160;&#160;&#160;&#160;&#160;&#160;</text>
<polygon fill="#e7e2dd" stroke="transparent" points="838.06,-2825.81 838.06,-2885.81 1277.06,-2885.81 1277.06,-2825.81 838.06,-2825.81"/>
<polygon fill="none" stroke="#29235c" points="838.06,-2825.81 838.06,-2885.81 1277.06,-2885.81 1277.06,-2825.81 838.06,-2825.81"/>
<text text-anchor="start" x="849.06" y="-2847.01" font-family="Helvetica,sans-Serif" font-weight="bold" font-size="32.00" fill="#29235c">id</text>
<text text-anchor="start" x="873.95" y="-2847.01" font-family="Helvetica,sans-Serif" font-size="32.00" fill="#29235c"> &#160;&#160;&#160;</text>
<text text-anchor="start" x="1189.6" y="-2847.01" font-family="Helvetica,sans-Serif" font-style="italic" font-size="32.00" fill="#29235c">bigint</text>
<polygon fill="#e7e2dd" stroke="transparent" points="838.06,-2765.81 838.06,-2825.81 1277.06,-2825.81 1277.06,-2765.81 838.06,-2765.81"/>
<polygon fill="none" stroke="#29235c" points="838.06,-2765.81 838.06,-2825.81 1277.06,-2825.81 1277.06,-2765.81 838.06,-2765.81"/>
<text text-anchor="start" x="849.06" y="-2786.01" font-family="Helvetica,sans-Serif" font-size="32.00" fill="#29235c">title &#160;&#160;&#160;</text>
<text text-anchor="start" x="1045.63" y="-2787.01" font-family="Helvetica,sans-Serif" font-style="italic" font-size="32.00" fill="#29235c">varchar(127)</text>
<text text-anchor="start" x="1226.97" y="-2787.01" font-family="Helvetica,sans-Serif" font-size="32.00" fill="#29235c"> </text>
<text text-anchor="start" x="1235.86" y="-2787.01" font-family="Helvetica,sans-Serif" font-weight="bold" font-size="32.00" fill="#29235c">(!)</text>
<polygon fill="#e7e2dd" stroke="transparent" points="838.06,-2705.81 838.06,-2765.81 1277.06,-2765.81 1277.06,-2705.81 838.06,-2705.81"/>
<polygon fill="none" stroke="#29235c" points="838.06,-2705.81 838.06,-2765.81 1277.06,-2765.81 1277.06,-2705.81 838.06,-2705.81"/>
<text text-anchor="start" x="849.06" y="-2726.01" font-family="Helvetica,sans-Serif" font-size="32.00" fill="#29235c">alias &#160;&#160;&#160;</text>
<text text-anchor="start" x="1045.63" y="-2727.01" font-family="Helvetica,sans-Serif" font-style="italic" font-size="32.00" fill="#29235c">varchar(127)</text>
<text text-anchor="start" x="1226.97" y="-2727.01" font-family="Helvetica,sans-Serif" font-size="32.00" fill="#29235c"> </text>
<text text-anchor="start" x="1235.86" y="-2727.01" font-family="Helvetica,sans-Serif" font-weight="bold" font-size="32.00" fill="#29235c">(!)</text>
<polygon fill="#e7e2dd" stroke="transparent" points="838.06,-2645.81 838.06,-2705.81 1277.06,-2705.81 1277.06,-2645.81 838.06,-2645.81"/>
<polygon fill="none" stroke="#29235c" points="838.06,-2645.81 838.06,-2705.81 1277.06,-2705.81 1277.06,-2645.81 838.06,-2645.81"/>
<text text-anchor="start" x="849.06" y="-2666.01" font-family="Helvetica,sans-Serif" font-size="32.00" fill="#29235c">created_date &#160;&#160;&#160;</text>
<text text-anchor="start" x="1079.41" y="-2667.01" font-family="Helvetica,sans-Serif" font-style="italic" font-size="32.00" fill="#29235c">timestamp</text>
<text text-anchor="start" x="1226.97" y="-2667.01" font-family="Helvetica,sans-Serif" font-size="32.00" fill="#29235c"> </text>
<text text-anchor="start" x="1235.86" y="-2667.01" font-family="Helvetica,sans-Serif" font-weight="bold" font-size="32.00" fill="#29235c">(!)</text>
<polygon fill="#e7e2dd" stroke="transparent" points="838.06,-2585.81 838.06,-2645.81 1277.06,-2645.81 1277.06,-2585.81 838.06,-2585.81"/>
<polygon fill="none" stroke="#29235c" points="838.06,-2585.81 838.06,-2645.81 1277.06,-2645.81 1277.06,-2585.81 838.06,-2585.81"/>
<text text-anchor="start" x="848.94" y="-2606.01" font-family="Helvetica,sans-Serif" font-size="32.00" fill="#29235c">updated_date &#160;&#160;&#160;</text>
<text text-anchor="start" x="1079.74" y="-2607.01" font-family="Helvetica,sans-Serif" font-style="italic" font-size="32.00" fill="#29235c">timestamp</text>
<text text-anchor="start" x="1227.3" y="-2607.01" font-family="Helvetica,sans-Serif" font-size="32.00" fill="#29235c"> </text>
<text text-anchor="start" x="1236.19" y="-2607.01" font-family="Helvetica,sans-Serif" font-weight="bold" font-size="32.00" fill="#29235c">(!)</text>
<polygon fill="none" stroke="#29235c" stroke-width="2" points="836.56,-2584.81 836.56,-2946.81 1277.56,-2946.81 1277.56,-2584.81 836.56,-2584.81"/>
</g>
<!-- business_categories -->
<g id="business_categories" class="node">
<title>business_categories</title>
<ellipse fill="none" stroke="black" stroke-width="0" cx="313.25" cy="-2429.81" rx="313.5" ry="257.27"/>
<polygon fill="#1d71b8" stroke="transparent" points="94.25,-2549.81 94.25,-2609.81 533.25,-2609.81 533.25,-2549.81 94.25,-2549.81"/>
<polygon fill="none" stroke="#29235c" points="94.25,-2549.81 94.25,-2609.81 533.25,-2609.81 533.25,-2549.81 94.25,-2549.81"/>
<text text-anchor="start" x="105.68" y="-2571.01" font-family="Helvetica,sans-Serif" font-weight="bold" font-size="32.00" fill="#ffffff"> &#160;&#160;&#160;&#160;&#160;&#160;business_categories &#160;&#160;&#160;&#160;&#160;&#160;</text>
<polygon fill="#e7e2dd" stroke="transparent" points="94.25,-2489.81 94.25,-2549.81 533.25,-2549.81 533.25,-2489.81 94.25,-2489.81"/>
<polygon fill="none" stroke="#29235c" points="94.25,-2489.81 94.25,-2549.81 533.25,-2549.81 533.25,-2489.81 94.25,-2489.81"/>
<text text-anchor="start" x="105.25" y="-2511.01" font-family="Helvetica,sans-Serif" font-weight="bold" font-size="32.00" fill="#29235c">id</text>
<text text-anchor="start" x="130.14" y="-2511.01" font-family="Helvetica,sans-Serif" font-size="32.00" fill="#29235c"> &#160;&#160;&#160;</text>
<text text-anchor="start" x="445.79" y="-2511.01" font-family="Helvetica,sans-Serif" font-style="italic" font-size="32.00" fill="#29235c">bigint</text>
<polygon fill="#e7e2dd" stroke="transparent" points="94.25,-2429.81 94.25,-2489.81 533.25,-2489.81 533.25,-2429.81 94.25,-2429.81"/>
<polygon fill="none" stroke="#29235c" points="94.25,-2429.81 94.25,-2489.81 533.25,-2489.81 533.25,-2429.81 94.25,-2429.81"/>
<text text-anchor="start" x="105.25" y="-2450.01" font-family="Helvetica,sans-Serif" font-size="32.00" fill="#29235c">business_id &#160;&#160;&#160;</text>
<text text-anchor="start" x="406.7" y="-2451.01" font-family="Helvetica,sans-Serif" font-style="italic" font-size="32.00" fill="#29235c">bigint</text>
<text text-anchor="start" x="483.16" y="-2451.01" font-family="Helvetica,sans-Serif" font-size="32.00" fill="#29235c"> </text>
<text text-anchor="start" x="492.05" y="-2451.01" font-family="Helvetica,sans-Serif" font-weight="bold" font-size="32.00" fill="#29235c">(!)</text>
<polygon fill="#e7e2dd" stroke="transparent" points="94.25,-2369.81 94.25,-2429.81 533.25,-2429.81 533.25,-2369.81 94.25,-2369.81"/>
<polygon fill="none" stroke="#29235c" points="94.25,-2369.81 94.25,-2429.81 533.25,-2429.81 533.25,-2369.81 94.25,-2369.81"/>
<text text-anchor="start" x="105.25" y="-2390.01" font-family="Helvetica,sans-Serif" font-size="32.00" fill="#29235c">category_id &#160;&#160;&#160;</text>
<text text-anchor="start" x="406.7" y="-2391.01" font-family="Helvetica,sans-Serif" font-style="italic" font-size="32.00" fill="#29235c">bigint</text>
<text text-anchor="start" x="483.16" y="-2391.01" font-family="Helvetica,sans-Serif" font-size="32.00" fill="#29235c"> </text>
<text text-anchor="start" x="492.05" y="-2391.01" font-family="Helvetica,sans-Serif" font-weight="bold" font-size="32.00" fill="#29235c">(!)</text>
<polygon fill="#e7e2dd" stroke="transparent" points="94.25,-2309.81 94.25,-2369.81 533.25,-2369.81 533.25,-2309.81 94.25,-2309.81"/>
<polygon fill="none" stroke="#29235c" points="94.25,-2309.81 94.25,-2369.81 533.25,-2369.81 533.25,-2309.81 94.25,-2309.81"/>
<text text-anchor="start" x="105.25" y="-2330.01" font-family="Helvetica,sans-Serif" font-size="32.00" fill="#29235c">created_date &#160;&#160;&#160;</text>
<text text-anchor="start" x="335.6" y="-2331.01" font-family="Helvetica,sans-Serif" font-style="italic" font-size="32.00" fill="#29235c">timestamp</text>
<text text-anchor="start" x="483.16" y="-2331.01" font-family="Helvetica,sans-Serif" font-size="32.00" fill="#29235c"> </text>
<text text-anchor="start" x="492.05" y="-2331.01" font-family="Helvetica,sans-Serif" font-weight="bold" font-size="32.00" fill="#29235c">(!)</text>
<polygon fill="#e7e2dd" stroke="transparent" points="94.25,-2249.81 94.25,-2309.81 533.25,-2309.81 533.25,-2249.81 94.25,-2249.81"/>
<polygon fill="none" stroke="#29235c" points="94.25,-2249.81 94.25,-2309.81 533.25,-2309.81 533.25,-2249.81 94.25,-2249.81"/>
<text text-anchor="start" x="105.13" y="-2270.01" font-family="Helvetica,sans-Serif" font-size="32.00" fill="#29235c">updated_date &#160;&#160;&#160;</text>
<text text-anchor="start" x="335.92" y="-2271.01" font-family="Helvetica,sans-Serif" font-style="italic" font-size="32.00" fill="#29235c">timestamp</text>
<text text-anchor="start" x="483.48" y="-2271.01" font-family="Helvetica,sans-Serif" font-size="32.00" fill="#29235c"> </text>
<text text-anchor="start" x="492.37" y="-2271.01" font-family="Helvetica,sans-Serif" font-weight="bold" font-size="32.00" fill="#29235c">(!)</text>
<polygon fill="none" stroke="#29235c" stroke-width="2" points="92.75,-2248.81 92.75,-2610.81 533.75,-2610.81 533.75,-2248.81 92.75,-2248.81"/>
</g>
<!-- business_categories&#45;&gt;businesses -->
<!-- business_categories&#45;&gt;businesses -->
<g id="edge2" class="edge">
<title>business_categories:e&#45;&gt;businesses:w</title>
<path fill="none" stroke="#29235c" stroke-width="3" d="M534.25,-2459.81C715.5,-2459.81 598.93,-2136.49 768.84,-2124.17"/>
<polygon fill="#29235c" stroke="#29235c" stroke-width="3" points="769.19,-2127.66 779.06,-2123.81 768.94,-2120.67 769.19,-2127.66"/>
<text text-anchor="middle" x="772.84" y="-2133.41" font-family="Helvetica,sans-Serif" font-size="32.00" fill="#29235c">*</text>
<text text-anchor="middle" x="543.14" y="-2469.41" font-family="Helvetica,sans-Serif" font-size="32.00" fill="#29235c">1</text>
</g>
<!-- business_categories&#45;&gt;categories -->
<!-- business_categories&#45;&gt;categories -->
<g id="edge4" class="edge">
<title>business_categories:e&#45;&gt;categories:w</title>
<path fill="none" stroke="#29235c" stroke-width="3" d="M534.25,-2399.81C774.09,-2399.81 598.9,-2842.99 826.98,-2855.54"/>
<polygon fill="#29235c" stroke="#29235c" stroke-width="3" points="826.97,-2859.04 837.06,-2855.81 827.16,-2852.05 826.97,-2859.04"/>
<text text-anchor="middle" x="830.84" y="-2865.41" font-family="Helvetica,sans-Serif" font-size="32.00" fill="#29235c">*</text>
<text text-anchor="middle" x="543.14" y="-2409.41" font-family="Helvetica,sans-Serif" font-size="32.00" fill="#29235c">1</text>
</g>
<!-- reviews -->
<g id="reviews" class="node">
<title>reviews</title>
<ellipse fill="none" stroke="black" stroke-width="0" cx="313.25" cy="-1124.81" rx="313.5" ry="384.83"/>
<polygon fill="#1d71b8" stroke="transparent" points="94.25,-1334.81 94.25,-1394.81 533.25,-1394.81 533.25,-1334.81 94.25,-1334.81"/>
<polygon fill="none" stroke="#29235c" points="94.25,-1334.81 94.25,-1394.81 533.25,-1394.81 533.25,-1334.81 94.25,-1334.81"/>
<text text-anchor="start" x="197.28" y="-1356.01" font-family="Helvetica,sans-Serif" font-weight="bold" font-size="32.00" fill="#ffffff"> &#160;&#160;&#160;&#160;&#160;&#160;reviews &#160;&#160;&#160;&#160;&#160;&#160;</text>
<polygon fill="#e7e2dd" stroke="transparent" points="94.25,-1274.81 94.25,-1334.81 533.25,-1334.81 533.25,-1274.81 94.25,-1274.81"/>
<polygon fill="none" stroke="#29235c" points="94.25,-1274.81 94.25,-1334.81 533.25,-1334.81 533.25,-1274.81 94.25,-1274.81"/>
<text text-anchor="start" x="105.25" y="-1296.01" font-family="Helvetica,sans-Serif" font-weight="bold" font-size="32.00" fill="#29235c">id</text>
<text text-anchor="start" x="130.14" y="-1296.01" font-family="Helvetica,sans-Serif" font-size="32.00" fill="#29235c"> &#160;&#160;&#160;</text>
<text text-anchor="start" x="445.79" y="-1296.01" font-family="Helvetica,sans-Serif" font-style="italic" font-size="32.00" fill="#29235c">bigint</text>
<polygon fill="#e7e2dd" stroke="transparent" points="94.25,-1214.81 94.25,-1274.81 533.25,-1274.81 533.25,-1214.81 94.25,-1214.81"/>
<polygon fill="none" stroke="#29235c" points="94.25,-1214.81 94.25,-1274.81 533.25,-1274.81 533.25,-1214.81 94.25,-1214.81"/>
<text text-anchor="start" x="105.25" y="-1235.01" font-family="Helvetica,sans-Serif" font-size="32.00" fill="#29235c">text &#160;&#160;&#160;</text>
<text text-anchor="start" x="431.58" y="-1236.01" font-family="Helvetica,sans-Serif" font-style="italic" font-size="32.00" fill="#29235c">text</text>
<text text-anchor="start" x="483.16" y="-1236.01" font-family="Helvetica,sans-Serif" font-size="32.00" fill="#29235c"> </text>
<text text-anchor="start" x="492.05" y="-1236.01" font-family="Helvetica,sans-Serif" font-weight="bold" font-size="32.00" fill="#29235c">(!)</text>
<polygon fill="#e7e2dd" stroke="transparent" points="94.25,-1154.81 94.25,-1214.81 533.25,-1214.81 533.25,-1154.81 94.25,-1154.81"/>
<polygon fill="none" stroke="#29235c" points="94.25,-1154.81 94.25,-1214.81 533.25,-1214.81 533.25,-1154.81 94.25,-1154.81"/>
<text text-anchor="start" x="105.25" y="-1175.01" font-family="Helvetica,sans-Serif" font-size="32.00" fill="#29235c">url &#160;&#160;&#160;</text>
<text text-anchor="start" x="301.81" y="-1176.01" font-family="Helvetica,sans-Serif" font-style="italic" font-size="32.00" fill="#29235c">varchar(255)</text>
<text text-anchor="start" x="483.16" y="-1176.01" font-family="Helvetica,sans-Serif" font-size="32.00" fill="#29235c"> </text>
<text text-anchor="start" x="492.05" y="-1176.01" font-family="Helvetica,sans-Serif" font-weight="bold" font-size="32.00" fill="#29235c">(!)</text>
<polygon fill="#e7e2dd" stroke="transparent" points="94.25,-1094.81 94.25,-1154.81 533.25,-1154.81 533.25,-1094.81 94.25,-1094.81"/>
<polygon fill="none" stroke="#29235c" points="94.25,-1094.81 94.25,-1154.81 533.25,-1154.81 533.25,-1094.81 94.25,-1094.81"/>
<text text-anchor="start" x="105.25" y="-1115.01" font-family="Helvetica,sans-Serif" font-size="32.00" fill="#29235c">rating &#160;&#160;&#160;</text>
<text text-anchor="start" x="422.69" y="-1116.01" font-family="Helvetica,sans-Serif" font-style="italic" font-size="32.00" fill="#29235c">float</text>
<text text-anchor="start" x="483.16" y="-1116.01" font-family="Helvetica,sans-Serif" font-size="32.00" fill="#29235c"> </text>
<text text-anchor="start" x="492.05" y="-1116.01" font-family="Helvetica,sans-Serif" font-weight="bold" font-size="32.00" fill="#29235c">(!)</text>
<polygon fill="#e7e2dd" stroke="transparent" points="94.25,-1034.81 94.25,-1094.81 533.25,-1094.81 533.25,-1034.81 94.25,-1034.81"/>
<polygon fill="none" stroke="#29235c" points="94.25,-1034.81 94.25,-1094.81 533.25,-1094.81 533.25,-1034.81 94.25,-1034.81"/>
<text text-anchor="start" x="105.25" y="-1055.01" font-family="Helvetica,sans-Serif" font-size="32.00" fill="#29235c">user_id &#160;&#160;&#160;</text>
<text text-anchor="start" x="406.7" y="-1056.01" font-family="Helvetica,sans-Serif" font-style="italic" font-size="32.00" fill="#29235c">bigint</text>
<text text-anchor="start" x="483.16" y="-1056.01" font-family="Helvetica,sans-Serif" font-size="32.00" fill="#29235c"> </text>
<text text-anchor="start" x="492.05" y="-1056.01" font-family="Helvetica,sans-Serif" font-weight="bold" font-size="32.00" fill="#29235c">(!)</text>
<polygon fill="#e7e2dd" stroke="transparent" points="94.25,-974.81 94.25,-1034.81 533.25,-1034.81 533.25,-974.81 94.25,-974.81"/>
<polygon fill="none" stroke="#29235c" points="94.25,-974.81 94.25,-1034.81 533.25,-1034.81 533.25,-974.81 94.25,-974.81"/>
<text text-anchor="start" x="105.25" y="-995.01" font-family="Helvetica,sans-Serif" font-size="32.00" fill="#29235c">business_id &#160;&#160;&#160;</text>
<text text-anchor="start" x="406.7" y="-996.01" font-family="Helvetica,sans-Serif" font-style="italic" font-size="32.00" fill="#29235c">bigint</text>
<text text-anchor="start" x="483.16" y="-996.01" font-family="Helvetica,sans-Serif" font-size="32.00" fill="#29235c"> </text>
<text text-anchor="start" x="492.05" y="-996.01" font-family="Helvetica,sans-Serif" font-weight="bold" font-size="32.00" fill="#29235c">(!)</text>
<polygon fill="#e7e2dd" stroke="transparent" points="94.25,-914.81 94.25,-974.81 533.25,-974.81 533.25,-914.81 94.25,-914.81"/>
<polygon fill="none" stroke="#29235c" points="94.25,-914.81 94.25,-974.81 533.25,-974.81 533.25,-914.81 94.25,-914.81"/>
<text text-anchor="start" x="105.25" y="-935.01" font-family="Helvetica,sans-Serif" font-size="32.00" fill="#29235c">created_date &#160;&#160;&#160;</text>
<text text-anchor="start" x="335.6" y="-936.01" font-family="Helvetica,sans-Serif" font-style="italic" font-size="32.00" fill="#29235c">timestamp</text>
<text text-anchor="start" x="483.16" y="-936.01" font-family="Helvetica,sans-Serif" font-size="32.00" fill="#29235c"> </text>
<text text-anchor="start" x="492.05" y="-936.01" font-family="Helvetica,sans-Serif" font-weight="bold" font-size="32.00" fill="#29235c">(!)</text>
<polygon fill="#e7e2dd" stroke="transparent" points="94.25,-854.81 94.25,-914.81 533.25,-914.81 533.25,-854.81 94.25,-854.81"/>
<polygon fill="none" stroke="#29235c" points="94.25,-854.81 94.25,-914.81 533.25,-914.81 533.25,-854.81 94.25,-854.81"/>
<text text-anchor="start" x="105.13" y="-875.01" font-family="Helvetica,sans-Serif" font-size="32.00" fill="#29235c">updated_date &#160;&#160;&#160;</text>
<text text-anchor="start" x="335.92" y="-876.01" font-family="Helvetica,sans-Serif" font-style="italic" font-size="32.00" fill="#29235c">timestamp</text>
<text text-anchor="start" x="483.48" y="-876.01" font-family="Helvetica,sans-Serif" font-size="32.00" fill="#29235c"> </text>
<text text-anchor="start" x="492.37" y="-876.01" font-family="Helvetica,sans-Serif" font-weight="bold" font-size="32.00" fill="#29235c">(!)</text>
<polygon fill="none" stroke="#29235c" stroke-width="2" points="92.75,-853.81 92.75,-1395.81 533.75,-1395.81 533.75,-853.81 92.75,-853.81"/>
</g>
<!-- reviews&#45;&gt;users -->
<!-- reviews&#45;&gt;users -->
<g id="edge6" class="edge">
<title>reviews:e&#45;&gt;users:w</title>
<path fill="none" stroke="#29235c" stroke-width="3" d="M534.25,-1064.81C744.78,-1064.81 559.73,-792.56 662.5,-608.81 716.62,-512.03 722.4,-425.22 826.97,-420.06"/>
<polygon fill="#29235c" stroke="#29235c" stroke-width="3" points="827.15,-423.55 837.06,-419.81 826.98,-416.56 827.15,-423.55"/>
<text text-anchor="middle" x="830.84" y="-391.01" font-family="Helvetica,sans-Serif" font-size="32.00" fill="#29235c">*</text>
<text text-anchor="middle" x="543.14" y="-1036.01" font-family="Helvetica,sans-Serif" font-size="32.00" fill="#29235c">1</text>
</g>
<!-- reviews&#45;&gt;businesses -->
<!-- reviews&#45;&gt;businesses -->
<g id="edge8" class="edge">
<title>reviews:e&#45;&gt;businesses:w</title>
<path fill="none" stroke="#29235c" stroke-width="3" d="M534.25,-1004.81C1039.86,-1004.81 280.48,-2108.57 768.8,-2123.66"/>
<polygon fill="#29235c" stroke="#29235c" stroke-width="3" points="769.01,-2127.16 779.06,-2123.81 769.12,-2120.16 769.01,-2127.16"/>
<text text-anchor="middle" x="772.84" y="-2095.01" font-family="Helvetica,sans-Serif" font-size="32.00" fill="#29235c">*</text>
<text text-anchor="middle" x="543.14" y="-976.01" font-family="Helvetica,sans-Serif" font-size="32.00" fill="#29235c">1</text>
</g>
</g>
</svg>
